<svg version="1.1" id="Layer_1" xmlns="http://www.w3.org/2000/svg" xmlns:xlink="http://www.w3.org/1999/xlink" x="0px" y="0px"
	 width="100%" viewBox="0 0 250 281" enable-background="new 0 0 250 281" xml:space="preserve">
<path fill="#000000" opacity="1.000000" stroke="none" 
	d="
M1.000000,107.000000 
	C1.000000,71.333336 1.000000,36.166676 1.000000,1.000010 
	C84.333321,1.000006 167.666641,1.000006 250.999969,1.000003 
	C250.999969,94.666649 250.999969,188.333298 250.999985,281.999939 
	C167.666702,281.999969 84.333405,281.999969 1.000053,282.000000 
	C1.000000,223.833328 1.000000,165.666672 1.000000,107.000000 
M155.469681,146.130859 
	C155.268387,146.415817 155.067093,146.700760 154.469269,147.009140 
	C154.469269,147.009140 154.072525,147.028305 153.336349,146.997360 
	C150.932312,148.677689 148.528290,150.358017 146.041214,152.036758 
	C146.041214,152.036758 146.001389,152.109680 145.554153,152.263107 
	C145.280655,152.444885 145.088684,152.690430 145.004822,153.001007 
	C145.004822,153.001007 144.994003,152.976517 144.255280,153.073593 
	C138.441055,156.368561 132.626831,159.663528 126.458626,162.988953 
	C126.458626,162.988953 126.103539,163.001129 125.372238,162.961365 
	C122.233284,164.955490 119.094330,166.949615 115.982506,168.975357 
	C115.982506,168.975357 115.947792,168.934036 115.241173,168.976364 
	C112.809296,170.640198 110.377426,172.304047 108.005455,173.986481 
	C108.005455,173.986481 107.971191,173.933914 107.229340,173.935028 
	C102.796494,176.329529 98.279182,178.582977 93.960876,181.168777 
	C91.142502,182.856430 88.613060,185.026596 86.000664,187.001022 
	C86.000664,187.001022 85.982918,186.953476 85.270912,187.065384 
	C82.503944,188.706696 79.736977,190.348007 77.006607,191.997604 
	C77.006607,191.997604 76.990051,191.963760 76.282188,191.977615 
	C74.829384,192.978790 73.376579,193.979980 71.253532,194.977509 
	C70.140343,195.533096 69.027153,196.088669 67.148758,197.017166 
	C66.638245,202.481033 66.127731,207.944916 65.617210,213.408783 
	C66.234596,213.518982 66.851982,213.629166 67.469368,213.739365 
	C67.966644,212.844681 68.492218,211.964371 68.956017,211.052658 
	C70.462006,208.092209 71.537773,204.808990 73.518730,202.214783 
	C78.250610,196.018005 85.088921,196.259384 91.991959,197.008484 
	C91.991959,197.008484 91.963768,197.068909 92.180573,197.771408 
	C98.504448,200.974960 104.703964,200.441727 109.129082,196.610703 
	C115.331268,191.241196 121.488113,185.786880 128.042465,180.873199 
	C130.518051,179.017288 131.839233,177.445023 132.211533,174.288879 
	C132.841507,168.948212 136.880463,165.985016 141.570206,164.370514 
	C146.030838,162.834854 149.652222,165.214569 152.574234,168.366760 
	C154.565872,170.515305 156.145935,173.045364 157.841660,175.545868 
	C157.841660,175.545868 157.812531,175.699875 157.269501,176.085403 
	C156.795944,177.047302 156.322388,178.009186 155.386154,179.198746 
	C154.959488,179.484619 154.532822,179.770493 153.415466,180.004349 
	C152.928802,180.667419 152.442139,181.330490 152.005737,182.005264 
	C152.005737,182.005264 151.999802,181.953995 151.375183,182.311157 
	C149.258163,184.198212 147.141144,186.085281 144.556625,188.168869 
	C144.361450,188.437744 144.166290,188.706619 143.320724,189.077225 
	C142.205032,190.028000 141.089325,190.978775 139.958099,191.958603 
	C139.958099,191.958603 139.925186,191.957138 139.244217,192.021393 
	C137.171509,193.824951 135.093582,195.622559 133.027679,197.433899 
	C131.319580,198.931534 129.625671,200.445374 127.994225,201.995163 
	C127.994225,201.995163 127.949348,201.927536 127.232292,202.019196 
	C123.828926,204.580948 120.529762,207.297989 116.997597,209.667770 
	C111.787811,213.163101 106.571899,216.709183 101.054832,219.667068 
	C96.899132,221.895081 92.266960,223.234375 87.457680,224.997391 
	C87.457680,224.997391 87.071869,225.055817 86.307388,225.047867 
	C82.495872,226.415024 77.993202,226.606628 75.990807,231.693222 
	C75.970245,232.090363 75.949677,232.487488 75.388466,233.368256 
	C74.145096,234.716003 72.901718,236.063736 71.658348,237.411484 
	C70.956787,236.998795 70.255234,236.586105 69.553680,236.173416 
	C70.206429,233.522202 70.131111,230.291092 71.676468,228.350800 
	C74.222244,225.154480 77.816475,222.793213 81.427940,220.585953 
	C88.248810,218.006073 95.069672,215.426178 102.506256,212.744202 
	C103.040115,212.422394 103.573982,212.100586 104.809647,211.821671 
	C106.241570,211.081741 107.851807,210.561279 109.076401,209.566193 
	C116.842979,203.255219 124.667686,197.002563 132.183960,190.401291 
	C137.295013,185.912430 141.934540,180.886688 147.448776,175.777786 
	C149.952393,173.438232 149.184601,171.567444 146.209503,171.105942 
	C144.219833,170.797302 142.035248,171.745209 139.406860,172.610367 
	C138.410339,178.567062 135.261337,182.813034 129.859680,185.691467 
	C127.580261,186.906128 125.971916,189.315094 123.849754,190.902008 
	C117.309822,195.792389 110.669174,200.548096 103.487274,205.437622 
	C102.955162,205.680847 102.423050,205.924072 101.499710,206.079330 
	C101.499710,206.079330 101.101196,206.123901 100.431168,206.106720 
	C98.936562,206.123032 97.441963,206.139343 95.269890,205.983749 
	C94.197350,205.572739 93.124802,205.161728 91.591927,204.212646 
	C83.362953,200.509293 76.273270,203.212021 74.148491,210.469040 
	C73.240265,213.570999 71.793472,216.833237 69.662827,219.179367 
	C66.960114,222.155457 65.940491,225.286118 66.014175,229.060730 
	C66.078735,232.367493 66.119194,235.674759 66.069382,239.761551 
	C65.925392,244.370483 63.166317,247.514923 59.042507,247.704529 
	C55.176128,247.882339 51.560192,245.693466 50.961769,240.045868 
	C50.932999,227.387177 50.904228,214.728485 50.947556,201.128372 
	C50.961308,197.477692 51.183846,193.812469 50.931183,190.180328 
	C50.668716,186.407288 52.036594,184.240250 55.417305,182.297241 
	C78.366066,169.107880 101.169189,155.665100 124.716919,142.126160 
	C125.933304,141.427139 127.149689,140.728134 128.622650,140.012650 
	C128.622650,140.012650 128.874573,139.961395 129.561096,139.823029 
	C131.211121,138.486298 132.861160,137.149582 135.335571,135.145004 
	C131.673767,135.145004 129.350555,135.145004 126.263733,135.057434 
	C125.496307,135.075333 124.728889,135.093231 123.033386,135.031036 
	C105.373741,135.055237 87.714088,135.079437 69.272209,135.349960 
	C62.548080,135.219788 55.823948,135.089600 48.871658,134.509048 
	C48.614243,134.295685 48.356823,134.082321 48.023346,133.241486 
	C47.977436,132.822678 47.931526,132.403885 47.968628,131.052689 
	C47.975906,114.484413 47.992641,97.916130 47.985680,81.347862 
	C47.982998,74.967636 47.232243,74.423485 40.363289,76.390762 
	C32.416889,80.528809 26.857599,86.292183 26.283098,95.993507 
	C26.190151,98.274887 26.017454,100.556213 26.016035,102.837654 
	C25.987867,148.089371 25.966759,193.341110 26.013451,238.592773 
	C26.015335,240.418076 26.696428,242.242706 27.041536,244.848267 
	C28.077915,254.028015 36.331799,261.910095 45.343826,262.796692 
	C97.567635,262.830231 149.791443,262.863739 202.769836,262.883240 
	C214.675171,259.559967 220.105759,253.607391 221.798691,242.627411 
	C221.816315,193.742310 221.833939,144.857208 221.616302,95.274971 
	C220.245819,91.800011 219.276291,88.092018 217.420578,84.899078 
	C213.670624,78.446884 205.127213,74.415291 199.014664,76.030136 
	C194.348648,76.021477 189.680588,76.094757 185.017303,75.977242 
	C181.527100,75.889282 178.772736,74.842072 178.974152,70.487328 
	C179.724228,54.271507 172.678406,41.364342 160.699677,31.384480 
	C153.454819,25.348547 145.291718,19.938683 134.330261,19.768501 
	C130.435638,19.513517 126.544235,19.183586 122.645851,19.016233 
	C103.512512,18.194860 88.482140,26.117792 77.537399,41.395607 
	C73.087151,47.607727 69.524818,54.693283 69.315918,63.447430 
	C69.209023,78.784752 69.097153,94.122055 69.044456,109.459557 
	C69.043709,109.680496 69.782364,109.903976 70.821945,110.032433 
	C72.235954,110.023994 73.649963,110.015556 75.566216,110.019585 
	C75.733253,110.007645 75.900291,109.995712 76.356262,110.816742 
	C110.256653,110.876846 144.157043,110.942436 178.057449,110.954338 
	C178.680878,110.954559 179.304535,110.315414 180.448242,109.960739 
	C180.619797,109.935188 180.791336,109.909630 181.481796,109.992065 
	C181.656219,110.020149 181.830658,110.048225 182.539627,110.610832 
	C183.129150,110.898354 183.968399,111.026863 184.268707,111.498520 
	C186.693787,115.307243 184.671814,125.486908 181.077393,128.606796 
	C178.850327,130.539856 176.805466,132.682816 174.134293,135.256119 
	C177.748276,136.391006 180.235016,137.171890 183.113464,138.734406 
	C183.408310,140.800201 183.944565,142.864197 183.959839,144.932053 
	C184.083267,161.631622 184.108795,178.331879 184.019150,195.955307 
	C184.041641,211.010941 184.064133,226.066574 183.951828,241.846115 
	C182.339279,245.783417 177.335678,249.066254 173.955460,247.656982 
	C170.437439,246.190277 167.592422,243.806824 167.902756,239.062622 
	C168.253799,233.696518 167.983719,228.289764 167.983719,222.189178 
	C165.017273,222.904739 163.080978,223.146133 161.324219,223.841263 
	C157.333954,225.420166 153.421188,227.197891 149.496262,228.938416 
	C140.318054,233.008575 131.151230,237.104446 121.223000,241.048370 
	C120.285713,241.312729 119.330475,241.526199 118.413933,241.849380 
	C110.104172,244.779404 101.874397,248.073547 92.851463,247.979874 
	C86.060013,247.909378 77.773026,242.749008 76.337517,237.666809 
	C78.652435,236.676086 80.884827,234.678711 82.911263,238.360992 
	C83.361519,239.179184 84.861710,239.480347 85.928505,239.888947 
	C95.430855,243.528305 104.355614,241.724777 113.628853,236.704498 
	C116.440857,235.746643 119.252861,234.788788 122.738449,233.901855 
	C125.808525,232.272415 128.878601,230.642960 132.659897,228.942902 
	C133.131180,228.877487 133.602448,228.812073 134.697449,228.851105 
	C135.484085,228.570389 136.270721,228.289658 137.536682,228.000168 
	C137.536682,228.000168 138.012558,227.942123 138.604263,227.810150 
	C139.157516,227.222809 139.710770,226.635468 140.873383,226.022141 
	C141.590347,225.720840 142.307297,225.419525 143.741898,225.097122 
	C144.878021,224.407700 146.014145,223.718277 147.601196,222.799759 
	C148.041458,222.567932 148.481720,222.336105 149.373901,222.622467 
	C152.538376,221.440140 155.669388,220.156006 158.875931,219.101562 
	C162.772751,217.820129 163.767380,215.547195 161.886383,211.149872 
	C162.380249,208.262421 162.874100,205.374969 163.367966,202.487534 
	C163.861908,202.515991 164.355865,202.544449 164.849808,202.572906 
	C165.481873,203.841370 166.113953,205.109848 166.746017,206.378326 
	C167.118454,206.317047 167.490891,206.255768 167.863327,206.194489 
	C167.863327,203.131912 167.863327,200.069336 167.939194,196.322769 
	C167.922256,195.864868 167.905304,195.406967 167.965652,194.024429 
	C167.965652,175.848862 167.965652,157.673294 167.965652,139.497726 
	C167.540878,139.271805 167.116119,139.045883 166.691345,138.819962 
	C165.102615,140.208557 163.513870,141.597153 161.464676,143.055725 
	C161.464676,143.055725 161.002182,143.110550 160.497070,143.192886 
	C160.294434,143.459900 160.091797,143.726913 159.491241,144.015579 
	C159.491241,144.015579 159.092789,144.020309 158.426849,143.956650 
	C157.604294,144.622513 156.781723,145.288391 155.972549,145.987289 
	C155.972549,145.987289 155.974365,145.962311 155.469681,146.130859 
z"/>
<path fill="#0E5E11" opacity="1.000000" stroke="none" 
	d="
M182.721756,137.952789 
	C180.235016,137.171890 177.748276,136.391006 174.134293,135.256119 
	C176.805466,132.682816 178.850327,130.539856 181.077393,128.606796 
	C184.671814,125.486908 186.693787,115.307243 184.268707,111.498520 
	C183.968399,111.026863 183.129150,110.898354 182.188400,110.188248 
	C181.545746,109.805138 181.254318,109.844612 180.962891,109.884079 
	C180.791336,109.909630 180.619797,109.935188 179.959564,109.952469 
	C179.470871,109.944191 179.032837,109.807594 178.681763,109.585190 
	C177.516602,109.238976 176.702576,109.007408 175.888397,109.006905 
	C144.185364,108.987404 112.482292,108.979462 80.779305,109.022522 
	C79.510094,109.024246 78.241570,109.535820 76.751297,109.878952 
	C76.529877,109.948067 76.067329,109.983772 76.067329,109.983772 
	C75.900291,109.995712 75.733253,110.007645 75.245636,109.723167 
	C73.299301,108.933174 71.673531,108.439606 70.038727,107.480850 
	C70.015839,92.310852 70.001984,77.606033 69.988136,62.901207 
	C69.524818,54.693283 73.087151,47.607727 77.537399,41.395607 
	C88.482140,26.117792 103.512512,18.194860 122.645851,19.016233 
	C126.544235,19.183586 130.435638,19.513517 134.701111,20.342535 
	C136.195694,21.608543 137.347046,22.925001 138.438080,22.876783 
	C141.873154,22.724974 143.596451,24.201775 144.379089,27.941936 
	C140.377533,28.310173 136.615479,28.929508 132.850494,28.947786 
	C124.159042,28.989988 115.408623,29.299332 106.794197,28.412111 
	C101.100388,27.825691 101.718193,29.861683 103.470795,33.453022 
	C102.723595,33.911125 102.154320,34.568211 101.612289,34.546463 
	C92.770554,34.191765 90.344322,41.647816 86.498657,47.163185 
	C85.347664,48.813931 85.112976,51.322891 85.031700,53.460461 
	C84.750206,60.863338 85.118172,68.313774 84.415169,75.667358 
	C84.101128,78.952332 84.550705,81.117241 87.547607,82.970985 
	C109.803329,82.997559 131.599442,83.029282 153.395386,82.979927 
	C154.978577,82.976349 156.560410,82.383720 158.342468,82.037308 
	C158.542068,82.009659 158.942566,82.054428 159.331253,82.065826 
	C160.209625,81.053917 160.699310,80.030609 161.414032,78.878227 
	C162.091141,78.496460 162.543213,78.243767 162.998932,78.380936 
	C163.653152,80.770317 164.303726,82.769844 164.954285,84.769379 
	C165.633591,84.674355 166.312897,84.579338 166.992188,84.484322 
	C167.662064,73.321320 168.331940,62.158318 169.304932,50.863483 
	C170.777817,51.447224 172.647079,51.935501 172.969101,52.926540 
	C173.604004,54.880394 172.545883,58.066692 173.669922,59.051044 
	C177.009064,61.975224 175.378052,64.992584 175.126923,68.193192 
	C174.865433,71.525963 173.880035,76.181686 178.798798,76.529907 
	C185.798798,77.025452 192.884216,76.313934 199.933151,76.118095 
	C205.127213,74.415291 213.670624,78.446884 217.420578,84.899078 
	C219.276291,88.092018 220.245819,91.800011 221.374847,95.862961 
	C221.079224,97.779930 220.977890,99.108917 220.977692,100.437912 
	C220.970398,147.935257 220.972580,195.432587 220.973419,242.929932 
	C220.105759,253.607391 214.675171,259.559967 202.161469,262.525879 
	C199.729340,262.102478 197.905563,261.978882 196.081787,261.978729 
	C145.717789,261.974182 95.353806,261.982147 44.989815,261.988068 
	C36.331799,261.910095 28.077915,254.028015 27.069677,243.985016 
	C27.077566,194.068817 27.057314,145.015869 27.037062,95.962936 
	C26.857599,86.292183 32.416889,80.528809 40.938126,76.489700 
	C46.252209,76.604156 47.063538,79.531242 47.033081,83.531464 
	C46.924679,97.767387 46.957561,112.004807 47.030872,126.241173 
	C47.040737,128.157227 47.587482,130.070511 47.885620,131.985077 
	C47.931526,132.403885 47.977436,132.822678 47.933861,133.727539 
	C48.262859,134.462189 48.681339,134.710800 49.099823,134.959412 
	C55.823948,135.089600 62.548080,135.219788 69.985733,135.476074 
	C87.863159,135.707489 105.027031,135.820938 122.191086,135.883682 
	C122.780266,135.885834 123.371292,135.380112 123.961456,135.111115 
	C124.728889,135.093231 125.496307,135.075333 126.709396,135.387238 
	C127.728233,137.131821 128.301407,138.546616 128.874573,139.961395 
	C128.874573,139.961395 128.622650,140.012650 128.079468,139.966278 
	C126.363976,140.714676 125.191673,141.509445 124.019371,142.304214 
	C101.169189,155.665100 78.366066,169.107880 55.417305,182.297241 
	C52.036594,184.240250 50.668716,186.407288 50.931183,190.180328 
	C51.183846,193.812469 50.961308,197.477692 50.629578,201.899597 
	C50.194969,214.696686 50.062023,226.722473 50.001091,238.748611 
	C49.997326,239.491776 50.560692,240.237823 50.860195,240.982529 
	C51.560192,245.693466 55.176128,247.882339 59.042507,247.704529 
	C63.166317,247.514923 65.925392,244.370483 66.458870,239.393097 
	C69.516403,240.243256 72.184456,241.461868 75.760170,243.095062 
	C78.230293,244.675095 81.395912,248.158997 84.996269,248.688843 
	C91.775520,249.686554 98.842209,249.422989 105.720291,248.851685 
	C111.889008,248.339279 117.411392,245.555252 121.979790,241.189880 
	C131.151230,237.104446 140.318054,233.008575 149.496262,228.938416 
	C153.421188,227.197891 157.333954,225.420166 161.324219,223.841263 
	C163.080978,223.146133 165.017273,222.904739 167.983719,222.189178 
	C167.983719,228.289764 168.253799,233.696518 167.902756,239.062622 
	C167.592422,243.806824 170.437439,246.190277 173.955460,247.656982 
	C177.335678,249.066254 182.339279,245.783417 184.369415,241.219299 
	C184.807922,225.410278 184.828857,210.228073 184.921478,194.579163 
	C185.004227,176.870239 185.071747,159.627533 184.926270,142.386627 
	C184.913757,140.902588 183.489960,139.430450 182.721756,137.952789 
z"/>
<path fill="#136016" opacity="1.000000" stroke="none" 
	d="
M67.913956,196.644257 
	C69.027153,196.088669 70.140343,195.533096 71.974136,194.986969 
	C74.126511,193.985550 75.558281,192.974655 76.990051,191.963760 
	C76.990051,191.963760 77.006607,191.997604 77.380386,191.997375 
	C81.225334,191.504059 84.719193,191.048019 85.982918,186.953476 
	C85.982918,186.953476 86.000664,187.001022 86.368034,186.980789 
	C95.502495,185.370895 101.634796,179.486038 107.971191,173.933914 
	C107.971191,173.933914 108.005455,173.986481 108.362053,173.987579 
	C111.128365,172.303802 113.538071,170.618912 115.947784,168.934021 
	C115.947792,168.934036 115.982506,168.975357 116.366409,168.979309 
	C120.628204,168.177734 124.922874,168.023849 126.103539,163.001129 
	C126.103539,163.001129 126.458626,162.988953 127.038498,162.992493 
	C134.109375,160.868607 140.488983,158.548004 144.994003,152.976517 
	C144.994003,152.976517 145.004822,153.001007 145.192429,152.888626 
	C145.630188,152.594177 145.837311,152.371994 146.001389,152.109680 
	C146.001389,152.109680 146.041214,152.036758 146.465637,152.019928 
	C150.598755,152.242722 153.030975,150.639420 154.072525,147.028305 
	C154.072525,147.028305 154.469269,147.009140 154.906387,146.890472 
	C155.553787,146.501968 155.764084,146.232132 155.974365,145.962311 
	C155.974365,145.962311 155.972549,145.987289 156.315613,145.974152 
	C157.470032,145.314117 158.281418,144.667206 159.092789,144.020309 
	C159.092789,144.020309 159.491241,144.015579 159.913269,143.907547 
	C160.618317,143.628616 160.840607,143.398956 161.002182,143.110550 
	C161.002182,143.110550 161.464676,143.055725 162.101257,143.029999 
	C167.276749,143.033539 166.970139,146.395081 166.980988,149.363678 
	C167.029556,162.638290 166.965561,175.913391 167.040039,189.187759 
	C167.050827,191.109726 167.592422,193.028702 167.888367,194.949066 
	C167.905304,195.406967 167.922256,195.864868 167.534454,196.665970 
	C165.080811,198.687790 163.031906,200.366409 160.784149,202.159851 
	C160.337769,202.466782 160.150665,202.706161 160.015106,202.998199 
	C160.006241,203.003616 160.001831,203.027710 159.638596,203.141327 
	C159.191238,206.176285 159.128952,209.098465 159.014481,212.018600 
	C158.950348,213.654266 158.799713,215.286560 158.633209,217.723038 
	C156.123764,214.076889 154.643387,211.615326 152.827713,209.432663 
	C152.044006,208.490524 149.895523,207.335144 149.530594,207.645386 
	C148.425858,208.584549 147.179306,210.243073 147.269470,211.531631 
	C147.517197,215.072433 145.882553,218.996994 148.921982,222.104279 
	C148.481720,222.336105 148.041458,222.567932 147.008469,222.892105 
	C145.255310,223.312439 144.094879,223.640411 142.612961,223.970917 
	C141.536880,223.664825 140.782303,223.356201 140.115570,222.749603 
	C140.786407,221.952118 141.369415,221.452621 142.229904,220.915344 
	C142.801880,220.573807 143.096375,220.270035 143.390884,219.966263 
	C142.918442,219.666214 142.445999,219.366165 141.973694,219.046875 
	C141.973816,219.027634 141.939453,219.044998 141.878937,218.709915 
	C140.873367,217.922791 139.928329,217.470749 138.734436,216.828674 
	C137.301086,216.415344 136.116592,216.192062 134.628693,216.047562 
	C133.553467,217.082733 132.781631,218.039108 131.679657,219.003113 
	C130.571854,219.326691 129.794189,219.642624 128.726807,219.927948 
	C127.956253,219.600998 127.475418,219.304672 127.269302,218.749573 
	C128.027786,216.815887 128.941650,215.132462 128.908722,213.467743 
	C128.832565,209.616196 128.298004,205.773697 127.949348,201.927536 
	C127.949348,201.927536 127.994225,201.995163 128.324646,201.938370 
	C130.604950,201.237061 132.413635,200.520187 133.399002,203.432114 
	C133.839630,204.734238 134.999924,206.076355 136.198517,206.766830 
	C137.705612,207.635010 139.891830,208.642517 141.219330,208.128632 
	C142.513275,207.627747 144.078705,205.075165 143.805328,203.788849 
	C142.947464,199.752396 141.279434,195.888107 139.925186,191.957138 
	C139.925186,191.957138 139.958099,191.958603 140.316940,191.969635 
	C142.503571,191.778702 145.085876,192.404099 143.971115,188.975494 
	C144.166290,188.706619 144.361450,188.437744 145.140198,188.160431 
	C146.139008,188.796326 146.788315,189.393509 146.929245,190.093124 
	C147.560669,193.227371 149.347610,195.933655 152.453140,194.621048 
	C154.089157,193.929550 154.571167,190.300415 155.347610,187.923660 
	C155.549820,187.304657 154.902115,186.407990 154.651962,185.660355 
	C153.177887,185.573776 151.876022,185.497314 150.407806,185.411087 
	C151.067566,183.978409 151.533676,182.966202 151.999802,181.953995 
	C151.999802,181.953995 152.005737,182.005264 152.237885,182.009033 
	C152.641312,182.003952 152.812607,181.995087 153.187897,181.869720 
	C153.647476,181.564560 153.854782,181.332733 154.050598,180.808640 
	C154.093658,180.391830 154.099915,180.224106 154.106171,180.056366 
	C154.532822,179.770493 154.959488,179.484619 155.984009,179.087524 
	C157.509537,178.519424 158.437241,178.062531 159.364929,177.605652 
	C158.847458,176.970398 158.329987,176.335144 157.812531,175.699875 
	C157.812531,175.699875 157.841660,175.545868 157.918213,175.030182 
	C157.946381,169.687134 153.383667,162.611145 149.265594,162.226990 
	C139.363617,161.303299 132.766357,162.439240 129.795380,173.491455 
	C129.200378,175.704865 127.231453,177.773102 125.433975,179.396744 
	C120.209373,184.116028 114.726158,188.547745 109.391106,193.146454 
	C105.487000,196.511749 101.387390,198.946625 95.912445,197.258118 
	C94.692787,196.881958 93.284958,197.115875 91.963768,197.068909 
	C91.963768,197.068909 91.991959,197.008484 91.861588,196.651642 
	C82.260010,192.486847 74.787758,196.478821 67.598389,203.254456 
	C67.730171,200.494125 67.822067,198.569183 67.913956,196.644257 
M140.519913,212.149796 
	C140.829956,212.091080 141.140015,212.032349 141.450058,211.973618 
	C141.142288,211.902939 140.834534,211.832260 140.519913,212.149796 
M138.472198,212.498962 
	C138.472198,212.498962 138.513351,212.482224 138.472198,212.498962 
z"/>
<path fill="#126018" opacity="1.000000" stroke="none" 
	d="
M162.995285,77.991081 
	C162.543213,78.243767 162.091141,78.496460 161.343903,78.413559 
	C161.024689,70.413780 161.000626,62.749599 160.843292,54.747643 
	C157.524307,46.509102 152.661133,40.047813 144.944153,35.646111 
	C143.283112,31.697954 139.488007,30.671917 135.695160,32.751320 
	C132.678848,32.339485 129.982727,31.912367 127.269836,31.709953 
	C115.673409,30.844728 105.071785,33.853165 95.877480,40.866840 
	C91.648720,44.092659 87.732758,48.279358 87.587517,54.050919 
	C87.361115,63.047073 87.742912,72.058533 87.652702,81.231903 
	C87.321609,81.918953 87.204788,82.437607 87.087967,82.956261 
	C84.550705,81.117241 84.101128,78.952332 84.415169,75.667358 
	C85.118172,68.313774 84.750206,60.863338 85.031700,53.460461 
	C85.112976,51.322891 85.347664,48.813931 86.498657,47.163185 
	C90.344322,41.647816 92.770554,34.191765 101.612289,34.546463 
	C102.154320,34.568211 102.723595,33.911125 103.470795,33.453022 
	C101.718193,29.861683 101.100388,27.825691 106.794197,28.412111 
	C115.408623,29.299332 124.159042,28.989988 132.850494,28.947786 
	C136.615479,28.929508 140.377533,28.310173 144.379089,27.941936 
	C143.596451,24.201775 141.873154,22.724974 138.438080,22.876783 
	C137.347046,22.925001 136.195694,21.608543 135.040649,20.536940 
	C145.291718,19.938683 153.454819,25.348547 160.699677,31.384480 
	C172.678406,41.364342 179.724228,54.271507 178.974152,70.487328 
	C178.772736,74.842072 181.527100,75.889282 185.017303,75.977242 
	C189.680588,76.094757 194.348648,76.021477 199.473907,76.074112 
	C192.884216,76.313934 185.798798,77.025452 178.798798,76.529907 
	C173.880035,76.181686 174.865433,71.525963 175.126923,68.193192 
	C175.378052,64.992584 177.009064,61.975224 173.669922,59.051044 
	C172.545883,58.066692 173.604004,54.880394 172.969101,52.926540 
	C172.647079,51.935501 170.777817,51.447224 169.057495,50.766830 
	C167.340607,50.202534 166.174271,49.603058 165.378418,48.991753 
	C167.176254,48.260338 168.603638,47.540749 170.031006,46.821156 
	C169.556702,46.138947 169.082397,45.456734 168.608093,44.774525 
	C167.071976,46.182404 165.535858,47.590286 163.832474,49.380554 
	C163.775558,57.174835 163.885910,64.586723 163.778854,72.202705 
	C163.703705,73.273392 163.845963,74.139992 163.951172,75.321587 
	C163.607834,76.421410 163.301559,77.206245 162.995285,77.991081 
M158.426193,33.743443 
	C154.436066,32.426517 155.299637,35.544300 155.429825,37.351414 
	C155.650238,40.410366 156.646881,43.308525 160.395905,43.567669 
	C163.664703,43.793613 165.202011,42.453720 164.898727,39.321316 
	C162.932693,37.546982 160.966660,35.772652 158.426193,33.743443 
M151.479538,34.123413 
	C150.412430,32.786636 149.345322,31.449860 148.278214,30.113081 
	C147.806839,30.629150 147.335480,31.145220 146.864105,31.661291 
	C148.253494,32.615406 149.642899,33.569519 151.479538,34.123413 
z"/>
<path fill="#115E14" opacity="1.000000" stroke="none" 
	d="
M122.064865,233.830933 
	C119.252861,234.788788 116.440857,235.746643 113.026482,236.601669 
	C111.467621,236.462601 110.481857,236.258057 109.559578,236.418488 
	C104.898033,237.229370 100.280174,238.340317 95.595955,238.960693 
	C88.175438,239.943466 83.029335,233.182571 75.929115,232.884628 
	C75.949677,232.487488 75.970245,232.090363 76.377502,231.362823 
	C80.200089,229.040237 83.635979,227.048019 87.071869,225.055817 
	C87.071869,225.055817 87.457680,224.997391 88.104347,224.999146 
	C94.826714,223.547318 100.925194,222.180664 106.966820,220.597107 
	C109.363403,219.968964 111.633842,218.859543 114.333321,217.968292 
	C116.135208,217.618851 117.565491,217.270401 119.020714,216.938309 
	C119.045654,216.954651 119.078125,217.004669 119.062592,217.306763 
	C120.033615,218.057297 121.020172,218.505737 122.012039,218.966522 
	C122.017357,218.978867 122.042358,218.988724 122.164230,219.248077 
	C122.850449,220.003693 123.414803,220.499954 124.206223,221.194687 
	C124.605080,221.961838 124.776878,222.530487 124.638840,222.963165 
	C123.248413,222.586304 122.167831,222.345428 120.745911,222.026840 
	C118.392410,221.226028 116.777946,221.135681 116.808670,224.310806 
	C117.192314,226.072556 117.656418,227.678680 118.494209,229.057785 
	C119.521034,230.748108 120.860542,232.248459 122.064865,233.830933 
z"/>
<path fill="#1C5E20" opacity="1.000000" stroke="none" 
	d="
M75.658791,233.126434 
	C83.029335,233.182571 88.175438,239.943466 95.595955,238.960693 
	C100.280174,238.340317 104.898033,237.229370 109.559578,236.418488 
	C110.481857,236.258057 111.467621,236.462601 112.689117,236.729889 
	C104.355614,241.724777 95.430855,243.528305 85.928505,239.888947 
	C84.861710,239.480347 83.361519,239.179184 82.911263,238.360992 
	C80.884827,234.678711 78.652435,236.676086 76.337517,237.666809 
	C77.773026,242.749008 86.060013,247.909378 92.851463,247.979874 
	C101.874397,248.073547 110.104172,244.779404 118.413933,241.849380 
	C119.330475,241.526199 120.285713,241.312729 121.601395,241.119125 
	C117.411392,245.555252 111.889008,248.339279 105.720291,248.851685 
	C98.842209,249.422989 91.775520,249.686554 84.996269,248.688843 
	C81.395912,248.158997 78.230293,244.675095 75.760170,243.095062 
	C72.184456,241.461868 69.516403,240.243256 66.509323,239.003204 
	C66.119194,235.674759 66.078735,232.367493 66.014175,229.060730 
	C65.940491,225.286118 66.960114,222.155457 69.662827,219.179367 
	C71.793472,216.833237 73.240265,213.570999 74.148491,210.469040 
	C76.273270,203.212021 83.362953,200.509293 91.816589,204.858002 
	C92.060745,206.001572 92.080238,206.499786 91.749321,207.238983 
	C91.001740,207.882980 90.604576,208.285980 90.028336,208.491989 
	C89.513298,208.189072 89.177345,208.083145 88.670639,207.984985 
	C88.499893,207.992737 88.158401,207.977203 87.748108,207.969330 
	C86.245193,207.986252 85.152588,208.011047 83.693024,208.036499 
	C80.799599,209.833939 78.273125,211.630722 76.398109,212.964188 
	C78.373741,216.039932 79.671242,218.059937 80.968750,220.079941 
	C77.816475,222.793213 74.222244,225.154480 71.676468,228.350800 
	C70.131111,230.291092 70.206429,233.522202 69.553680,236.173416 
	C70.255234,236.586105 70.956787,236.998795 71.658348,237.411484 
	C72.901718,236.063736 74.145096,234.716003 75.658791,233.126434 
z"/>
<path fill="#2C6530" opacity="1.000000" stroke="none" 
	d="
M146.784943,176.101028 
	C141.934540,180.886688 137.295013,185.912430 132.183960,190.401291 
	C124.667686,197.002563 116.842979,203.255219 109.076401,209.566193 
	C107.851807,210.561279 106.241570,211.081741 104.446457,211.456573 
	C104.147926,210.403381 104.212593,209.715256 104.583710,209.011963 
	C109.123955,206.764801 102.682205,206.944626 104.067657,205.356125 
	C110.669174,200.548096 117.309822,195.792389 123.849754,190.902008 
	C125.971916,189.315094 127.580261,186.906128 129.859680,185.691467 
	C135.261337,182.813034 138.410339,178.567062 139.670380,172.756836 
	C140.402008,178.299026 140.402008,178.299026 146.784943,176.101028 
z"/>
<path fill="#1E6122" opacity="1.000000" stroke="none" 
	d="
M113.961716,217.969269 
	C111.633842,218.859543 109.363403,219.968964 106.966820,220.597107 
	C100.925194,222.180664 94.826714,223.547318 88.298950,224.985077 
	C92.266960,223.234375 96.899132,221.895081 101.054832,219.667068 
	C106.571899,216.709183 111.787811,213.163101 116.997597,209.667770 
	C120.529762,207.297989 123.828926,204.580948 127.590820,201.973358 
	C128.298004,205.773697 128.832565,209.616196 128.908722,213.467743 
	C128.941650,215.132462 128.027786,216.815887 126.896202,218.750916 
	C125.502014,219.010361 124.755630,219.009720 123.681244,218.999268 
	C122.916275,218.989212 122.479317,218.988968 122.042358,218.988708 
	C122.042358,218.988724 122.017357,218.978867 121.935364,218.644531 
	C120.928284,217.875015 120.003204,217.439850 119.078125,217.004669 
	C119.078125,217.004669 119.045654,216.954651 119.025711,216.618286 
	C118.583359,215.481567 118.160957,214.681229 117.738556,213.880875 
	C116.479614,215.243683 115.220665,216.606476 113.961716,217.969269 
z"/>
<path fill="#205E25" opacity="1.000000" stroke="none" 
	d="
M92.072174,197.420166 
	C93.284958,197.115875 94.692787,196.881958 95.912445,197.258118 
	C101.387390,198.946625 105.487000,196.511749 109.391106,193.146454 
	C114.726158,188.547745 120.209373,184.116028 125.433975,179.396744 
	C127.231453,177.773102 129.200378,175.704865 129.795380,173.491455 
	C132.766357,162.439240 139.363617,161.303299 149.265594,162.226990 
	C153.383667,162.611145 157.946381,169.687134 157.952393,174.959671 
	C156.145935,173.045364 154.565872,170.515305 152.574234,168.366760 
	C149.652222,165.214569 146.030838,162.834854 141.570206,164.370514 
	C136.880463,165.985016 132.841507,168.948212 132.211533,174.288879 
	C131.839233,177.445023 130.518051,179.017288 128.042465,180.873199 
	C121.488113,185.786880 115.331268,191.241196 109.129082,196.610703 
	C104.703964,200.441727 98.504448,200.974960 92.072174,197.420166 
z"/>
<path fill="#99C39D" opacity="1.000000" stroke="none" 
	d="
M45.166821,262.392395 
	C95.353806,261.982147 145.717789,261.974182 196.081787,261.978729 
	C197.905563,261.978882 199.729340,262.102478 201.784180,262.532898 
	C149.791443,262.863739 97.567635,262.830231 45.166821,262.392395 
z"/>
<path fill="#1E6122" opacity="1.000000" stroke="none" 
	d="
M149.147949,222.363373 
	C145.882553,218.996994 147.517197,215.072433 147.269470,211.531631 
	C147.179306,210.243073 148.425858,208.584549 149.530594,207.645386 
	C149.895523,207.335144 152.044006,208.490524 152.827713,209.432663 
	C154.643387,211.615326 156.123764,214.076889 158.633209,217.723038 
	C158.799713,215.286560 158.950348,213.654266 159.014481,212.018600 
	C159.128952,209.098465 159.191238,206.176285 159.637878,203.576981 
	C160.567917,206.592377 161.135452,209.285767 161.702972,211.979141 
	C163.767380,215.547195 162.772751,217.820129 158.875931,219.101562 
	C155.669388,220.156006 152.538376,221.440140 149.147949,222.363373 
z"/>
<path fill="#649A69" opacity="1.000000" stroke="none" 
	d="
M26.660080,95.978226 
	C27.057314,145.015869 27.077566,194.068817 27.079443,243.594696 
	C26.696428,242.242706 26.015335,240.418076 26.013451,238.592773 
	C25.966759,193.341110 25.987867,148.089371 26.016035,102.837654 
	C26.017454,100.556213 26.190151,98.274887 26.660080,95.978226 
z"/>
<path fill="#B1D7B8" opacity="1.000000" stroke="none" 
	d="
M221.386047,242.778671 
	C220.972580,195.432587 220.970398,147.935257 220.977692,100.437912 
	C220.977890,99.108917 221.079224,97.779930 221.492477,96.211525 
	C221.833939,144.857208 221.816315,193.742310 221.386047,242.778671 
z"/>
<path fill="#1E6122" opacity="1.000000" stroke="none" 
	d="
M139.584702,191.989258 
	C141.279434,195.888107 142.947464,199.752396 143.805328,203.788849 
	C144.078705,205.075165 142.513275,207.627747 141.219330,208.128632 
	C139.891830,208.642517 137.705612,207.635010 136.198517,206.766830 
	C134.999924,206.076355 133.839630,204.734238 133.399002,203.432114 
	C132.413635,200.520187 130.604950,201.237061 128.290268,201.916809 
	C129.625671,200.445374 131.319580,198.931534 133.027679,197.433899 
	C135.093582,195.622559 137.171509,193.824951 139.584702,191.989258 
M137.777252,200.098145 
	C137.448822,200.742661 137.120392,201.387192 136.171127,202.370377 
	C136.499100,202.928391 136.827057,203.486420 137.927200,203.920273 
	C141.142731,204.301376 141.197815,202.233154 141.032349,199.221329 
	C140.791428,198.545258 140.550522,197.869186 140.309616,197.193115 
	C139.517822,197.981842 138.726013,198.770554 137.777252,200.098145 
z"/>
<path fill="#27622B" opacity="1.000000" stroke="none" 
	d="
M81.198349,220.332947 
	C79.671242,218.059937 78.373741,216.039932 76.398109,212.964188 
	C78.273125,211.630722 80.799599,209.833939 83.550072,208.340881 
	C82.222504,210.423080 80.670937,212.201538 79.119362,213.979996 
	C79.424492,214.562225 79.729630,215.144470 80.034760,215.726700 
	C84.050087,214.149963 88.065414,212.573212 92.399666,211.005127 
	C93.144516,211.029419 93.570450,211.045044 94.193062,211.347076 
	C96.007812,211.881470 97.626968,212.122635 99.243507,212.380234 
	C100.128143,212.521210 101.008347,212.690018 101.890541,212.846298 
	C95.069672,215.426178 88.248810,218.006073 81.198349,220.332947 
z"/>
<path fill="#205E25" opacity="1.000000" stroke="none" 
	d="
M67.531357,196.830719 
	C67.822067,198.569183 67.730171,200.494125 67.598389,203.254456 
	C74.787758,196.478821 82.260010,192.486847 91.838364,196.675690 
	C85.088921,196.259384 78.250610,196.018005 73.518730,202.214783 
	C71.537773,204.808990 70.462006,208.092209 68.956017,211.052658 
	C68.492218,211.964371 67.966644,212.844681 67.469368,213.739365 
	C66.851982,213.629166 66.234596,213.518982 65.617210,213.408783 
	C66.127731,207.944916 66.638245,202.481033 67.531357,196.830719 
z"/>
<path fill="#DFFFE3" opacity="1.000000" stroke="none" 
	d="
M179.032837,109.807594 
	C179.032837,109.807594 179.470871,109.944191 179.699478,109.959396 
	C179.304535,110.315414 178.680878,110.954559 178.057449,110.954338 
	C144.157043,110.942436 110.256653,110.876846 76.211792,110.400253 
	C76.067329,109.983772 76.529877,109.948067 77.216934,109.961761 
	C111.613609,109.919502 145.323227,109.863548 179.032837,109.807594 
z"/>
<path fill="#346739" opacity="1.000000" stroke="none" 
	d="
M121.087242,222.104538 
	C122.167831,222.345428 123.248413,222.586304 124.917412,223.004120 
	C125.965706,223.475403 126.425583,223.769775 126.866196,224.275879 
	C126.846939,224.487625 126.821030,224.912064 126.699219,225.041382 
	C126.670799,225.473495 126.764198,225.776276 126.969315,226.396423 
	C128.378983,227.461670 129.676926,228.209549 131.218109,228.975250 
	C131.461334,228.993057 131.948685,229.013519 131.948685,229.013519 
	C128.878601,230.642960 125.808525,232.272415 122.401657,233.866394 
	C120.860542,232.248459 119.521034,230.748108 118.494209,229.057785 
	C117.656418,227.678680 117.192314,226.072556 117.170143,224.306229 
	C118.880920,223.398422 119.984085,222.751480 121.087242,222.104538 
z"/>
<path fill="#346B3E" opacity="1.000000" stroke="none" 
	d="
M151.687500,182.132568 
	C151.533676,182.966202 151.067566,183.978409 150.407806,185.411087 
	C151.876022,185.497314 153.177887,185.573776 154.651962,185.660355 
	C154.902115,186.407990 155.549820,187.304657 155.347610,187.923660 
	C154.571167,190.300415 154.089157,193.929550 152.453140,194.621048 
	C149.347610,195.933655 147.560669,193.227371 146.929245,190.093124 
	C146.788315,189.393509 146.139008,188.796326 145.373932,188.062164 
	C147.141144,186.085281 149.258163,184.198212 151.687500,182.132568 
z"/>
<path fill="#215726" opacity="1.000000" stroke="none" 
	d="
M167.927002,194.486755 
	C167.592422,193.028702 167.050827,191.109726 167.040039,189.187759 
	C166.965561,175.913391 167.029556,162.638290 166.980988,149.363678 
	C166.970139,146.395081 167.276749,143.033539 162.331482,142.995026 
	C163.513870,141.597153 165.102615,140.208557 166.691345,138.819962 
	C167.116119,139.045883 167.540878,139.271805 167.965652,139.497726 
	C167.965652,157.673294 167.965652,175.848862 167.927002,194.486755 
z"/>
<path fill="#265C2B" opacity="1.000000" stroke="none" 
	d="
M47.927124,131.518890 
	C47.587482,130.070511 47.040737,128.157227 47.030872,126.241173 
	C46.957561,112.004807 46.924679,97.767387 47.033081,83.531464 
	C47.063538,79.531242 46.252209,76.604156 41.238953,76.336037 
	C47.232243,74.423485 47.982998,74.967636 47.985680,81.347862 
	C47.992641,97.916130 47.975906,114.484413 47.927124,131.518890 
z"/>
<path fill="#1E5D24" opacity="1.000000" stroke="none" 
	d="
M161.794678,211.564514 
	C161.135452,209.285767 160.567917,206.592377 160.001099,203.463348 
	C160.001831,203.027710 160.006241,203.003616 160.208710,202.876953 
	C160.654251,202.557739 160.844849,202.322647 160.983002,202.045044 
	C163.031906,200.366409 165.080811,198.687790 167.496521,197.007965 
	C167.863327,200.069336 167.863327,203.131912 167.863327,206.194489 
	C167.490891,206.255768 167.118454,206.317047 166.746017,206.378326 
	C166.113953,205.109848 165.481873,203.841370 164.849808,202.572906 
	C164.355865,202.544449 163.861908,202.515991 163.367966,202.487534 
	C162.874100,205.374969 162.380249,208.262421 161.794678,211.564514 
z"/>
<path fill="#A7CFA9" opacity="1.000000" stroke="none" 
	d="
M182.917603,138.343597 
	C183.489960,139.430450 184.913757,140.902588 184.926270,142.386627 
	C185.071747,159.627533 185.004227,176.870239 184.750092,194.574127 
	C184.507050,195.035782 184.164200,195.031937 184.164200,195.031937 
	C184.108795,178.331879 184.083267,161.631622 183.959839,144.932053 
	C183.944565,142.864197 183.408310,140.800201 182.917603,138.343597 
z"/>
<path fill="#1E6122" opacity="1.000000" stroke="none" 
	d="
M132.304291,228.978210 
	C131.948685,229.013519 131.461334,228.993057 131.240234,228.616058 
	C131.031464,226.493561 131.043777,224.748062 131.056290,222.668579 
	C131.056137,221.889221 131.055786,221.443863 131.264679,220.802338 
	C131.652557,220.069260 131.831177,219.532379 132.009796,218.995483 
	C132.781631,218.039108 133.553467,217.082733 134.655304,216.371628 
	C134.705917,219.325638 134.426544,222.034378 134.085876,225.337250 
	C136.231308,224.510498 138.129517,223.779022 140.027725,223.047562 
	C140.782303,223.356201 141.536880,223.664825 142.634979,224.258606 
	C142.993744,224.735245 143.009003,224.926743 143.024261,225.118225 
	C142.307297,225.419525 141.590347,225.720840 140.233337,226.065338 
	C139.066376,226.719727 138.539459,227.330917 138.012543,227.942108 
	C138.012558,227.942123 137.536682,228.000168 137.106186,227.765869 
	C135.808380,227.936584 134.941055,228.341629 134.073730,228.746658 
	C133.602448,228.812073 133.131180,228.877487 132.304291,228.978210 
z"/>
<path fill="#205E25" opacity="1.000000" stroke="none" 
	d="
M107.600266,173.934479 
	C101.634796,179.486038 95.502495,185.370895 86.344803,186.970581 
	C88.613060,185.026596 91.142502,182.856430 93.960876,181.168777 
	C98.279182,178.582977 102.796494,176.329529 107.600266,173.934479 
z"/>
<path fill="#295F2E" opacity="1.000000" stroke="none" 
	d="
M123.497421,135.071075 
	C123.371292,135.380112 122.780266,135.885834 122.191086,135.883682 
	C105.027031,135.820938 87.863159,135.707489 70.376846,135.352905 
	C87.714088,135.079437 105.373741,135.055237 123.497421,135.071075 
z"/>
<path fill="#0B5C0E" opacity="1.000000" stroke="none" 
	d="
M147.116852,175.939407 
	C140.402008,178.299026 140.402008,178.299026 139.935898,172.517059 
	C142.035248,171.745209 144.219833,170.797302 146.209503,171.105942 
	C149.184601,171.567444 149.952393,173.438232 147.116852,175.939407 
z"/>
<path fill="#456F45" opacity="1.000000" stroke="none" 
	d="
M69.652023,63.174316 
	C70.001984,77.606033 70.015839,92.310852 70.031929,107.846191 
	C70.081421,109.159889 70.128670,109.643082 70.175926,110.126274 
	C69.782364,109.903976 69.043709,109.680496 69.044456,109.459557 
	C69.097153,94.122055 69.209023,78.784752 69.652023,63.174316 
z"/>
<path fill="#CBF1CB" opacity="1.000000" stroke="none" 
	d="
M184.091675,195.493622 
	C184.164200,195.031937 184.507050,195.035782 184.678421,195.040833 
	C184.828857,210.228073 184.807922,225.410278 184.436798,240.857330 
	C184.064133,226.066574 184.041641,211.010941 184.091675,195.493622 
z"/>
<path fill="#205E25" opacity="1.000000" stroke="none" 
	d="
M144.624634,153.025055 
	C140.488983,158.548004 134.109375,160.868607 127.215485,162.977264 
	C132.626831,159.663528 138.441055,156.368561 144.624634,153.025055 
z"/>
<path fill="#5A8057" opacity="1.000000" stroke="none" 
	d="
M50.910980,240.514191 
	C50.560692,240.237823 49.997326,239.491776 50.001091,238.748611 
	C50.062023,226.722473 50.194969,214.696686 50.593533,202.370300 
	C50.904228,214.728485 50.932999,227.387177 50.910980,240.514191 
z"/>
<path fill="#27622B" opacity="1.000000" stroke="none" 
	d="
M103.777466,205.396881 
	C102.682205,206.944626 109.123955,206.764801 104.273705,208.774231 
	C100.458015,209.041565 97.258781,209.531464 93.708214,210.011246 
	C92.890160,210.005249 92.423431,210.009384 91.686310,209.919189 
	C91.013084,209.446243 90.610252,209.067612 90.207413,208.688980 
	C90.604576,208.285980 91.001740,207.882980 92.009773,207.363281 
	C93.729546,206.882935 94.838455,206.519302 95.947357,206.155670 
	C97.441963,206.139343 98.936562,206.123032 100.843140,206.211151 
	C101.255112,206.315582 101.600914,206.376221 101.600914,206.376221 
	C101.600914,206.376221 101.890945,206.167313 101.890945,206.167313 
	C102.423050,205.924072 102.955162,205.680847 103.777466,205.396881 
z"/>
<path fill="#0A5E0F" opacity="1.000000" stroke="none" 
	d="
M94.059540,210.021362 
	C97.258781,209.531464 100.458015,209.041565 103.967255,208.789413 
	C104.212593,209.715256 104.147926,210.403381 104.095551,211.435150 
	C103.573982,212.100586 103.040115,212.422394 102.198395,212.795258 
	C101.008347,212.690018 100.128143,212.521210 99.243507,212.380234 
	C97.626968,212.122635 96.007812,211.881470 94.225128,211.087631 
	C94.060188,210.368301 94.059868,210.194824 94.059540,210.021362 
z"/>
<path fill="#1E6122" opacity="1.000000" stroke="none" 
	d="
M86.689629,225.051849 
	C83.635979,227.048019 80.200089,229.040237 76.391159,231.064880 
	C77.993202,226.606628 82.495872,226.415024 86.689629,225.051849 
z"/>
<path fill="#205E25" opacity="1.000000" stroke="none" 
	d="
M125.737885,162.981247 
	C124.922874,168.023849 120.628204,168.177734 116.352844,168.963501 
	C119.094330,166.949615 122.233284,164.955490 125.737885,162.981247 
z"/>
<path fill="#295F2E" opacity="1.000000" stroke="none" 
	d="
M129.217834,139.892212 
	C128.301407,138.546616 127.728233,137.131821 127.091217,135.431030 
	C129.350555,135.145004 131.673767,135.145004 135.335571,135.145004 
	C132.861160,137.149582 131.211121,138.486298 129.217834,139.892212 
z"/>
<path fill="#205E25" opacity="1.000000" stroke="none" 
	d="
M85.626915,187.009430 
	C84.719193,191.048019 81.225334,191.504059 77.362083,191.993225 
	C79.736977,190.348007 82.503944,188.706696 85.626915,187.009430 
z"/>
<path fill="#205E25" opacity="1.000000" stroke="none" 
	d="
M153.704437,147.012833 
	C153.030975,150.639420 150.598755,152.242722 146.507172,152.020706 
	C148.528290,150.358017 150.932312,148.677689 153.704437,147.012833 
z"/>
<path fill="#205E25" opacity="1.000000" stroke="none" 
	d="
M115.594482,168.955200 
	C113.538071,170.618912 111.128365,172.303802 108.332100,173.978287 
	C110.377426,172.304047 112.809296,170.640198 115.594482,168.955200 
z"/>
<path fill="#225427" opacity="1.000000" stroke="none" 
	d="
M70.498932,110.079353 
	C70.128670,109.643082 70.081421,109.159889 70.040970,108.311363 
	C71.673531,108.439606 73.299301,108.933174 74.994522,109.716934 
	C73.649963,110.015556 72.235954,110.023994 70.498932,110.079353 
z"/>
<path fill="#205E25" opacity="1.000000" stroke="none" 
	d="
M76.636124,191.970688 
	C75.558281,192.974655 74.126511,193.985550 72.309258,194.988800 
	C73.376579,193.979980 74.829384,192.978790 76.636124,191.970688 
z"/>
<path fill="#205E25" opacity="1.000000" stroke="none" 
	d="
M157.541016,175.892639 
	C158.329987,176.335144 158.847458,176.970398 159.364929,177.605652 
	C158.437241,178.062531 157.509537,178.519424 156.215332,178.973694 
	C156.322388,178.009186 156.795944,177.047302 157.541016,175.892639 
z"/>
<path fill="#1E6122" opacity="1.000000" stroke="none" 
	d="
M143.645920,189.026367 
	C145.085876,192.404099 142.503571,191.778702 140.324707,191.955109 
	C141.089325,190.978775 142.205032,190.028000 143.645920,189.026367 
z"/>
<path fill="#2C6530" opacity="1.000000" stroke="none" 
	d="
M95.608627,206.069702 
	C94.838455,206.519302 93.729546,206.882935 92.360191,207.122284 
	C92.080238,206.499786 92.060745,206.001572 92.046753,205.127045 
	C93.124802,205.161728 94.197350,205.572739 95.608627,206.069702 
z"/>
<path fill="#295F2E" opacity="1.000000" stroke="none" 
	d="
M124.368149,142.215179 
	C125.191673,141.509445 126.363976,140.714676 127.951180,139.974518 
	C127.149689,140.728134 125.933304,141.427139 124.368149,142.215179 
z"/>
<path fill="#316831" opacity="1.000000" stroke="none" 
	d="
M143.383087,225.107666 
	C143.009003,224.926743 142.993744,224.735245 142.956467,224.256073 
	C144.094879,223.640411 145.255310,223.312439 146.783005,223.006653 
	C146.014145,223.718277 144.878021,224.407700 143.383087,225.107666 
z"/>
<path fill="#316831" opacity="1.000000" stroke="none" 
	d="
M134.385590,228.798889 
	C134.941055,228.341629 135.808380,227.936584 136.866516,227.770248 
	C136.270721,228.289658 135.484085,228.570389 134.385590,228.798889 
z"/>
<path fill="#215726" opacity="1.000000" stroke="none" 
	d="
M158.759827,143.988480 
	C158.281418,144.667206 157.470032,145.314117 156.308914,145.957642 
	C156.781723,145.288391 157.604294,144.622513 158.759827,143.988480 
z"/>
<path fill="#316831" opacity="1.000000" stroke="none" 
	d="
M138.308411,227.876129 
	C138.539459,227.330917 139.066376,226.719727 139.928650,226.078323 
	C139.710770,226.635468 139.157516,227.222809 138.308411,227.876129 
z"/>
<path fill="#346B3E" opacity="1.000000" stroke="none" 
	d="
M152.983902,181.986206 
	C152.812607,181.995087 152.641312,182.003952 152.212738,182.003174 
	C152.442139,181.330490 152.928802,180.667419 153.760818,180.030365 
	C154.099915,180.224106 154.093658,180.391830 153.838348,180.914032 
	C153.317352,181.448547 153.115555,181.687790 152.983902,181.986206 
z"/>
<path fill="#265C2B" opacity="1.000000" stroke="none" 
	d="
M48.985741,134.734222 
	C48.681339,134.710800 48.262859,134.462189 47.971893,134.041260 
	C48.356823,134.082321 48.614243,134.295685 48.985741,134.734222 
z"/>
<path fill="#215726" opacity="1.000000" stroke="none" 
	d="
M160.749634,143.151718 
	C160.840607,143.398956 160.618317,143.628616 160.112228,143.896729 
	C160.091797,143.726913 160.294434,143.459900 160.749634,143.151718 
z"/>
<path fill="#225427" opacity="1.000000" stroke="none" 
	d="
M181.222351,109.938072 
	C181.254318,109.844612 181.545746,109.805138 181.921143,109.920990 
	C181.830658,110.048225 181.656219,110.020149 181.222351,109.938072 
z"/>
<path fill="#205E25" opacity="1.000000" stroke="none" 
	d="
M145.777771,152.186401 
	C145.837311,152.371994 145.630188,152.594177 145.179138,152.888000 
	C145.088684,152.690430 145.280655,152.444885 145.777771,152.186401 
z"/>
<path fill="#205E25" opacity="1.000000" stroke="none" 
	d="
M155.722015,146.046585 
	C155.764084,146.232132 155.553787,146.501968 155.104645,146.878754 
	C155.067093,146.700760 155.268387,146.415817 155.722015,146.046585 
z"/>
<path fill="#0A5E0F" opacity="1.000000" stroke="none" 
	d="
M101.695328,206.123322 
	C101.890945,206.167313 101.600914,206.376221 101.600914,206.376221 
	C101.600914,206.376221 101.255112,206.315582 101.178154,206.219742 
	C101.101196,206.123901 101.499710,206.079330 101.695328,206.123322 
z"/>
<path fill="#000000" opacity="1.000000" stroke="none" 
	d="
M87.866982,81.063507 
	C87.742912,72.058533 87.361115,63.047073 87.587517,54.050919 
	C87.732758,48.279358 91.648720,44.092659 95.877480,40.866840 
	C105.071785,33.853165 115.673409,30.844728 127.269836,31.709953 
	C129.982727,31.912367 132.678848,32.339485 135.961533,32.895653 
	C139.341278,34.097538 142.142151,35.066990 144.943039,36.036442 
	C152.661133,40.047813 157.524307,46.509102 160.447510,54.923553 
	C160.122238,57.244095 160.080597,59.051983 159.993118,60.857651 
	C159.650803,67.923622 159.293991,74.988899 158.942566,82.054428 
	C158.942566,82.054428 158.542068,82.009659 157.856857,82.016853 
	C135.962463,82.016479 114.753204,82.032616 93.544250,81.960670 
	C91.650833,81.954254 89.759361,81.376122 87.866982,81.063507 
z"/>
<path fill="#0C6011" opacity="1.000000" stroke="none" 
	d="
M165.007935,49.003578 
	C166.174271,49.603058 167.340607,50.202534 168.754395,50.898663 
	C168.331940,62.158318 167.662064,73.321320 166.992188,84.484322 
	C166.312897,84.579338 165.633591,84.674355 164.954285,84.769379 
	C164.303726,82.769844 163.653152,80.770317 162.998932,78.380936 
	C163.301559,77.206245 163.607834,76.421410 164.171478,75.148941 
	C164.284637,73.773743 164.140457,72.886185 163.996262,71.998619 
	C163.885910,64.586723 163.775558,57.174835 164.084534,49.381672 
	C164.671875,49.001461 164.839905,49.002522 165.007935,49.003578 
z"/>
<path fill="#225427" opacity="1.000000" stroke="none" 
	d="
M178.681763,109.585190 
	C145.323227,109.863548 111.613609,109.919502 77.438362,109.892647 
	C78.241570,109.535820 79.510094,109.024246 80.779305,109.022522 
	C112.482292,108.979462 144.185364,108.987404 175.888397,109.006905 
	C176.702576,109.007408 177.516602,109.238976 178.681763,109.585190 
z"/>
<path fill="#446945" opacity="1.000000" stroke="none" 
	d="
M87.652702,81.231903 
	C89.759361,81.376122 91.650833,81.954254 93.544250,81.960670 
	C114.753204,82.032616 135.962463,82.016479 157.657257,82.044510 
	C156.560410,82.383720 154.978577,82.976349 153.395386,82.979927 
	C131.599442,83.029282 109.803329,82.997559 87.547607,82.970985 
	C87.204788,82.437607 87.321609,81.918953 87.652702,81.231903 
z"/>
<path fill="#AED9AF" opacity="1.000000" stroke="none" 
	d="
M159.331253,82.065826 
	C159.293991,74.988899 159.650803,67.923622 159.993118,60.857651 
	C160.080597,59.051983 160.122238,57.244095 160.580750,55.261322 
	C161.000626,62.749599 161.024689,70.413780 161.118866,78.542633 
	C160.699310,80.030609 160.209625,81.053917 159.331253,82.065826 
z"/>
<path fill="#316831" opacity="1.000000" stroke="none" 
	d="
M140.115570,222.749573 
	C138.129517,223.779022 136.231308,224.510498 134.085876,225.337250 
	C134.426544,222.034378 134.705917,219.325638 134.958710,216.292831 
	C136.116592,216.192062 137.301086,216.415344 138.854675,217.077850 
	C140.128983,218.026382 141.034225,218.535690 141.939453,219.044998 
	C141.939453,219.044998 141.973816,219.027634 141.971252,219.360992 
	C141.963287,220.113953 141.957870,220.533539 141.952454,220.953125 
	C141.369415,221.452621 140.786407,221.952118 140.115570,222.749573 
M137.500046,218.541946 
	C137.500046,218.541946 137.473526,218.479980 137.500046,218.541946 
z"/>
<path fill="#066006" opacity="1.000000" stroke="none" 
	d="
M131.055420,220.998520 
	C131.055786,221.443863 131.056137,221.889221 130.723633,222.810104 
	C129.222351,223.545151 128.053909,223.804642 126.885468,224.064148 
	C126.425583,223.769775 125.965706,223.475403 125.227249,223.140106 
	C124.776878,222.530487 124.605080,221.961838 124.211777,220.863525 
	C123.996597,219.892258 124.002930,219.450668 124.009262,219.009064 
	C124.755630,219.009720 125.502014,219.010361 126.621490,219.009674 
	C127.475418,219.304672 127.956253,219.600998 128.981522,220.057312 
	C130.035782,220.477692 130.545593,220.738113 131.055420,220.998520 
z"/>
<path fill="#1E6122" opacity="1.000000" stroke="none" 
	d="
M141.878937,218.709915 
	C141.034225,218.535690 140.128983,218.026382 139.103516,217.267883 
	C139.928329,217.470749 140.873367,217.922791 141.878937,218.709915 
z"/>
<path fill="#115E14" opacity="1.000000" stroke="none" 
	d="
M131.264679,220.802338 
	C130.545593,220.738113 130.035782,220.477692 129.271240,220.087921 
	C129.794189,219.642624 130.571854,219.326691 131.679657,219.003113 
	C131.831177,219.532379 131.652557,220.069260 131.264679,220.802338 
z"/>
<path fill="#1E6122" opacity="1.000000" stroke="none" 
	d="
M140.523346,211.955688 
	C140.834534,211.832260 141.142288,211.902939 141.450058,211.973618 
	C141.140015,212.032349 140.829956,212.091080 140.523346,211.955688 
z"/>
<path fill="#1E6122" opacity="1.000000" stroke="none" 
	d="
M142.229919,220.915344 
	C141.957870,220.533539 141.963287,220.113953 141.971130,219.380249 
	C142.445999,219.366165 142.918442,219.666214 143.390884,219.966263 
	C143.096375,220.270035 142.801880,220.573807 142.229919,220.915344 
z"/>
<path fill="#205E25" opacity="1.000000" stroke="none" 
	d="
M153.187897,181.869720 
	C153.115555,181.687790 153.317352,181.448547 153.801559,181.163101 
	C153.854782,181.332733 153.647476,181.564560 153.187897,181.869720 
z"/>
<path fill="#1E6122" opacity="1.000000" stroke="none" 
	d="
M160.784149,202.159836 
	C160.844849,202.322647 160.654251,202.557739 160.217590,202.871552 
	C160.150665,202.706161 160.337769,202.466782 160.784149,202.159836 
z"/>
<path fill="#1E6122" opacity="1.000000" stroke="none" 
	d="
M138.492767,212.490601 
	C138.513351,212.482224 138.472198,212.498962 138.492767,212.490601 
z"/>
<path fill="#0C6011" opacity="1.000000" stroke="none" 
	d="
M165.005142,39.997017 
	C165.202011,42.453720 163.664703,43.793613 160.395905,43.567669 
	C156.646881,43.308525 155.650238,40.410366 155.429825,37.351414 
	C155.299637,35.544300 154.436066,32.426517 158.715790,34.258034 
	C158.687637,39.175735 162.200043,39.180237 165.005142,39.997017 
z"/>
<path fill="#0D5A10" opacity="1.000000" stroke="none" 
	d="
M144.944153,35.646111 
	C142.142151,35.066990 139.341278,34.097538 136.274017,32.983753 
	C139.488007,30.671917 143.283112,31.697954 144.944153,35.646111 
z"/>
<path fill="#0E5E11" opacity="1.000000" stroke="none" 
	d="
M164.951935,39.659164 
	C162.200043,39.180237 158.687637,39.175735 159.003006,34.385475 
	C160.966660,35.772652 162.932693,37.546982 164.951935,39.659164 
z"/>
<path fill="#0E5E11" opacity="1.000000" stroke="none" 
	d="
M165.378418,48.991753 
	C164.839905,49.002522 164.671875,49.001461 164.251801,48.999283 
	C165.535858,47.590286 167.071976,46.182404 168.608093,44.774525 
	C169.082397,45.456734 169.556702,46.138947 170.031006,46.821156 
	C168.603638,47.540749 167.176254,48.260338 165.378418,48.991753 
z"/>
<path fill="#0D5A10" opacity="1.000000" stroke="none" 
	d="
M151.255920,34.323524 
	C149.642899,33.569519 148.253494,32.615406 146.864105,31.661291 
	C147.335480,31.145220 147.806839,30.629150 148.278214,30.113081 
	C149.345322,31.449860 150.412430,32.786636 151.255920,34.323524 
z"/>
<path fill="#0E5E11" opacity="1.000000" stroke="none" 
	d="
M163.778854,72.202705 
	C164.140457,72.886185 164.284637,73.773743 164.208527,74.833954 
	C163.845963,74.139992 163.703705,73.273392 163.778854,72.202705 
z"/>
<path fill="#136016" opacity="1.000000" stroke="none" 
	d="
M114.333328,217.968292 
	C115.220665,216.606476 116.479614,215.243683 117.738556,213.880875 
	C118.160957,214.681229 118.583359,215.481567 119.000763,216.601944 
	C117.565491,217.270401 116.135208,217.618851 114.333328,217.968292 
z"/>
<path fill="#1E6122" opacity="1.000000" stroke="none" 
	d="
M120.745911,222.026840 
	C119.984085,222.751480 118.880920,223.398422 117.416283,224.049942 
	C116.777946,221.135681 118.392410,221.226028 120.745911,222.026840 
z"/>
<path fill="#136016" opacity="1.000000" stroke="none" 
	d="
M119.062592,217.306763 
	C120.003204,217.439850 120.928284,217.875015 121.930046,218.632187 
	C121.020172,218.505737 120.033615,218.057297 119.062592,217.306763 
z"/>
<path fill="#136016" opacity="1.000000" stroke="none" 
	d="
M123.681244,218.999268 
	C124.002930,219.450668 123.996597,219.892258 123.984718,220.665039 
	C123.414803,220.499954 122.850449,220.003693 122.164230,219.248077 
	C122.479317,218.988968 122.916275,218.989212 123.681244,218.999268 
z"/>
<path fill="#000000" opacity="1.000000" stroke="none" 
	d="
M90.028336,208.491989 
	C90.610252,209.067612 91.013084,209.446243 91.715393,210.165131 
	C92.014854,210.505402 92.080742,210.996475 92.080742,210.996475 
	C88.065414,212.573212 84.050087,214.149963 80.034760,215.726700 
	C79.729630,215.144470 79.424492,214.562225 79.119362,213.979996 
	C80.670937,212.201538 82.222504,210.423080 83.917023,208.340240 
	C85.152588,208.011047 86.245193,207.986252 87.794975,208.117371 
	C88.252144,208.273270 88.623810,208.363907 88.623810,208.363907 
	C88.623810,208.363907 88.841393,207.977203 88.841393,207.977203 
	C89.177345,208.083145 89.513298,208.189072 90.028336,208.491989 
z"/>
<path fill="#27622B" opacity="1.000000" stroke="none" 
	d="
M88.670639,207.984970 
	C88.841393,207.977203 88.623810,208.363907 88.623810,208.363907 
	C88.623810,208.363907 88.252144,208.273270 88.205276,208.125244 
	C88.158401,207.977203 88.499893,207.992737 88.670639,207.984970 
z"/>
<path fill="#000000" opacity="1.000000" stroke="none" 
	d="
M140.993439,199.963837 
	C141.197815,202.233154 141.142731,204.301376 137.490021,203.643005 
	C136.965897,202.921051 136.878922,202.476395 136.791962,202.031723 
	C137.120392,201.387192 137.448822,200.742661 138.099670,199.564026 
	C139.279190,199.341217 140.136322,199.652527 140.993439,199.963837 
z"/>
<path fill="#C6ECC5" opacity="1.000000" stroke="none" 
	d="
M141.012894,199.592590 
	C140.136322,199.652527 139.279190,199.341217 138.178131,199.294586 
	C138.726013,198.770554 139.517822,197.981842 140.309616,197.193115 
	C140.550522,197.869186 140.791428,198.545258 141.012894,199.592590 
z"/>
<path fill="#C5E4C3" opacity="1.000000" stroke="none" 
	d="
M136.481537,202.201050 
	C136.878922,202.476395 136.965897,202.921051 137.103943,203.705078 
	C136.827057,203.486420 136.499100,202.928391 136.481537,202.201050 
z"/>
<path fill="#2C6530" opacity="1.000000" stroke="none" 
	d="
M92.399666,211.005127 
	C92.080742,210.996475 92.014854,210.505402 91.985779,210.259460 
	C92.423431,210.009384 92.890160,210.005249 93.708214,210.011246 
	C94.059868,210.194824 94.060188,210.368301 94.028442,210.801239 
	C93.570450,211.045044 93.144516,211.029419 92.399666,211.005127 
z"/>
<path fill="#115E14" opacity="1.000000" stroke="none" 
	d="
M126.866203,224.275879 
	C128.053909,223.804642 129.222351,223.545151 130.723450,223.144104 
	C131.043777,224.748062 131.031464,226.493561 130.997009,228.598236 
	C129.676926,228.209549 128.378983,227.461670 126.980011,226.103836 
	C126.859665,225.299942 126.840347,225.106003 126.821030,224.912064 
	C126.821030,224.912064 126.846939,224.487625 126.866203,224.275879 
z"/>
<path fill="#1E6122" opacity="1.000000" stroke="none" 
	d="
M126.699219,225.041382 
	C126.840347,225.106003 126.859665,225.299942 126.868286,225.786469 
	C126.764198,225.776276 126.670799,225.473495 126.699219,225.041382 
z"/>
<path fill="#1E6122" opacity="1.000000" stroke="none" 
	d="
M137.486786,218.510956 
	C137.473526,218.479980 137.500046,218.541946 137.486786,218.510956 
z"/>
</svg>