<svg version="1.1" id="Layer_1" xmlns="http://www.w3.org/2000/svg" xmlns:xlink="http://www.w3.org/1999/xlink" x="0px" y="0px"
	 width="100%" viewBox="0 0 500 500" enable-background="new 0 0 500 500" xml:space="preserve">
<path fill="#000000" opacity="1.000000" stroke="none" 
	d="
M236.000000,501.000000 
	C157.333359,501.000000 79.166702,501.000000 1.000042,501.000000 
	C1.000028,334.333405 1.000028,167.666779 1.000014,1.000131 
	C167.666565,1.000088 334.333130,1.000088 500.999756,1.000044 
	C500.999847,167.666519 500.999847,334.333038 500.999939,500.999786 
	C412.833344,501.000000 324.666656,501.000000 236.000000,501.000000 
M236.012039,286.996277 
	C236.012039,286.996277 235.988708,286.961456 235.318207,287.022858 
	C234.207367,287.680115 233.096542,288.337402 232.001221,289.001221 
	C232.001221,289.001221 231.994446,288.985901 231.276031,289.044159 
	C227.168427,291.689148 223.060822,294.334106 219.000519,297.000854 
	C219.000519,297.000854 218.981750,296.952271 218.271774,297.072083 
	C215.504608,298.711029 212.737442,300.349976 210.008316,301.997223 
	C210.008316,301.997223 209.989365,301.963074 209.284271,301.979675 
	C207.832443,302.979645 206.380615,303.979614 204.454651,305.035889 
	C204.454651,305.035889 203.978485,305.071472 203.319885,304.997131 
	C202.753601,305.302429 202.187332,305.607727 201.302139,306.062500 
	C201.103134,306.206299 200.972366,306.396942 200.150925,307.018097 
	C199.618881,312.759583 199.086853,318.501068 198.554810,324.242554 
	C199.203644,324.394257 199.852478,324.545959 200.501312,324.697693 
	C202.955032,318.412659 204.722641,311.650818 211.572220,308.006439 
	C211.572220,308.006439 211.992706,307.892853 212.693665,307.705017 
	C216.777802,307.488708 220.861938,307.272400 225.000229,307.026031 
	C225.000229,307.026031 224.957687,307.073151 225.153290,307.752594 
	C231.109848,311.528076 237.469757,310.733704 242.634338,306.122314 
	C247.025391,302.201599 252.028107,298.959137 256.358856,294.979797 
	C260.154846,291.491852 264.688721,288.977478 265.989105,282.756744 
	C267.862823,273.793091 278.441162,271.457916 285.083344,277.751251 
	C287.004761,279.571808 289.006195,281.307861 290.729309,283.593872 
	C289.511627,285.749329 288.293915,287.904785 286.398376,290.019165 
	C285.915497,290.679962 285.432617,291.340759 285.010986,292.005493 
	C285.010986,292.005493 285.002655,291.944733 284.390625,292.328339 
	C282.291412,294.194061 280.192200,296.059753 277.448334,298.206451 
	C267.606781,306.056793 257.765259,313.907135 247.230896,321.914459 
	C243.284897,324.348907 239.495712,327.103668 235.351257,329.132782 
	C230.686340,331.416626 225.701172,333.046326 220.451950,334.995514 
	C220.451950,334.995514 220.051605,335.055969 219.293167,335.053223 
	C215.608521,336.932709 210.066711,336.101929 209.030670,342.438629 
	C209.030670,342.438629 208.946762,342.874298 208.418839,343.355591 
	C207.342789,344.716797 206.266739,346.078003 205.190659,347.439178 
	C204.381500,345.659027 202.600296,343.663452 202.938522,342.137634 
	C204.135040,336.739532 207.391434,332.776794 213.827118,331.149384 
	C220.946594,328.477722 228.066086,325.806061 235.665237,322.794586 
	C236.148163,322.451935 236.631104,322.109283 237.815201,321.811920 
	C239.246216,321.080566 240.853989,320.568939 242.079956,319.582703 
	C250.999619,312.407104 259.975861,305.290863 268.647278,297.822693 
	C272.387939,294.601074 275.447754,290.588989 279.530579,286.882202 
	C280.546753,285.781830 281.562927,284.681458 282.579071,283.581055 
	C281.014679,282.515869 279.552277,280.854034 277.855377,280.563934 
	C276.350281,280.306671 274.584686,281.573090 272.634460,282.290863 
	C272.431702,282.409851 272.321869,282.586639 272.149017,283.376709 
	C272.105896,283.564148 272.062805,283.751587 271.535217,284.141510 
	C271.391907,284.446106 271.248596,284.750702 271.057312,285.847900 
	C271.076080,286.904388 271.094849,287.960907 270.775238,289.609161 
	C261.227142,297.190826 251.687576,304.783234 242.127640,312.349915 
	C236.921646,316.470428 231.263718,317.575226 224.595108,314.210754 
	C215.315109,309.679413 209.665512,311.791656 207.218643,320.291656 
	C206.322495,323.404694 204.853943,326.642731 202.766830,329.066132 
	C197.540543,335.134491 199.289749,342.158203 199.077774,349.752777 
	C198.838333,354.408234 196.120987,357.603027 191.823807,357.705170 
	C188.060745,357.794586 184.583359,355.559265 183.973297,350.079865 
	C183.998840,331.377838 184.024384,312.675842 183.975418,293.982422 
	C183.975418,293.982422 183.981750,294.057159 184.676254,294.249756 
	C185.251328,293.821838 185.826416,293.393921 187.078232,292.952209 
	C214.033203,277.650726 240.902420,262.205566 267.576904,246.434265 
	C267.351196,246.000626 267.125488,245.566971 266.899780,245.133331 
	C263.581085,245.133331 260.262360,245.133331 256.018036,245.052734 
	C233.463531,245.022766 210.908890,245.025604 188.354767,244.915466 
	C185.924194,244.903610 183.496811,244.235977 181.005371,243.231750 
	C180.954239,242.805725 180.903107,242.379715 180.933350,241.025925 
	C180.946365,225.451553 181.013611,209.876877 180.925507,194.303070 
	C180.908386,191.275986 180.286209,188.252289 179.943115,185.227051 
	C176.544998,186.481171 173.146881,187.735291 169.336975,189.229034 
	C168.945999,189.498383 168.555038,189.767731 167.434753,189.949768 
	C166.943283,190.621857 166.451813,191.293945 165.996811,191.993515 
	C165.996811,191.993515 165.962509,191.972580 165.316330,192.199692 
	C164.192642,194.132111 163.068954,196.064529 162.003693,198.014557 
	C162.003693,198.014557 162.009842,197.953873 161.480255,198.107330 
	C161.347794,198.430466 161.215332,198.753586 160.949081,199.839478 
	C160.646652,201.881180 160.344223,203.922882 159.288559,205.995300 
	C159.193817,208.279892 159.017761,210.564438 159.016327,212.849075 
	C158.987686,258.098694 158.966385,303.348297 159.013443,348.597839 
	C159.015335,350.420990 159.702179,352.243439 160.047592,354.846436 
	C161.061798,364.010254 169.302750,371.882660 178.344147,372.796387 
	C230.571793,372.827301 282.799438,372.858246 335.779358,372.871857 
	C347.690277,369.615631 353.808258,362.906891 354.796753,352.627625 
	C354.863220,352.134918 354.987762,351.642212 354.987885,351.149475 
	C355.001282,303.041626 355.011444,254.933807 354.964203,206.826019 
	C354.963257,205.890015 354.280243,204.954666 353.976929,203.244827 
	C353.699341,202.140213 353.530731,200.993927 353.126770,199.937637 
	C350.192047,192.263733 344.622253,187.042740 336.698792,185.670334 
	C331.275452,184.730972 325.501953,185.924210 319.883331,185.973083 
	C312.951172,186.033417 312.049713,185.047333 311.981079,178.318207 
	C311.815338,162.066559 304.499725,149.517212 291.761902,139.931595 
	C281.078705,131.892151 269.112152,128.720688 255.592484,128.781815 
	C236.541992,128.867966 221.546722,136.086685 210.611359,151.279236 
	C206.120529,157.518356 202.548706,164.639389 202.314117,173.444275 
	C202.199966,188.627762 202.077591,203.811234 202.027863,218.994934 
	C202.026810,219.313675 202.864929,219.635162 203.974808,220.055069 
	C205.672852,220.030777 207.370880,220.006485 209.355713,220.815903 
	C243.256638,220.876266 277.157562,220.942123 311.058502,220.954163 
	C311.680878,220.954391 312.303467,220.313889 313.707367,220.073425 
	C315.073090,220.858917 317.070923,221.312439 317.689484,222.490311 
	C319.793976,226.497589 317.477081,235.735138 313.869080,238.724716 
	C311.640808,240.571045 309.235596,242.203827 306.909821,243.932495 
	C307.361389,244.484695 307.812927,245.036911 308.264465,245.589127 
	C310.749023,246.376221 313.233582,247.163330 316.113068,248.731079 
	C316.408051,250.797028 316.944550,252.861176 316.959869,254.929184 
	C317.083282,271.630035 317.108734,288.331604 317.019165,305.956177 
	C317.044128,321.020142 317.069092,336.084137 316.949738,351.865387 
	C315.973724,357.467682 311.191437,357.314453 307.305969,357.655609 
	C304.070740,357.939636 301.017883,353.195862 300.990479,348.921570 
	C300.956024,343.550690 300.982147,338.179474 300.982147,331.541443 
	C294.009338,334.376099 288.492859,336.508911 283.065918,338.849274 
	C273.672394,342.900269 264.334412,347.079956 254.219620,351.062622 
	C244.703491,354.350677 235.203278,357.704376 224.513885,358.065002 
	C224.513885,358.065002 224.026138,357.996399 223.816956,357.693665 
	C223.534805,357.794342 223.252670,357.895020 222.562302,357.960541 
	C222.562302,357.960541 222.156616,357.903168 221.695282,357.342468 
	C216.731537,354.809143 210.145676,354.117554 208.868301,345.519409 
	C211.900726,346.858978 214.132385,347.536652 216.032074,348.738922 
	C223.111115,353.219055 234.749222,352.964325 242.750565,347.932953 
	C243.220963,347.835052 243.691360,347.737122 244.846924,347.775085 
	C247.417252,346.925018 250.057373,346.240662 252.544739,345.193481 
	C259.734619,342.166626 266.862976,338.993774 274.570343,335.889069 
	C275.047852,335.651886 275.525360,335.414673 276.724823,335.127197 
	C277.872070,334.430817 279.019287,333.734436 280.702515,332.951447 
	C281.366730,332.675262 282.030945,332.399109 283.179565,332.596985 
	C285.294006,331.828094 287.416870,331.081451 289.521118,330.285614 
	C293.726624,328.695129 297.014008,326.826233 295.090424,321.140778 
	C294.394745,319.084717 295.570953,316.395325 296.194550,313.500763 
	C297.537872,313.865326 298.881195,314.229889 300.890747,314.775238 
	C300.890747,293.201050 300.890747,271.417603 300.890747,248.254883 
	C292.172302,253.687744 284.579773,258.419006 276.523651,263.243958 
	C276.238281,263.420410 276.060852,263.672791 276.002350,264.000854 
	C276.002350,264.000854 275.997803,263.990082 275.247894,263.984009 
	C270.102417,266.974335 264.956970,269.964661 259.455261,272.986267 
	C259.455261,272.986267 259.097900,272.999542 258.368713,272.963806 
	C255.229401,274.955811 252.090088,276.947784 248.989029,278.959015 
	C248.989029,278.959015 248.946884,278.926453 248.307144,278.960327 
	C247.543732,279.643738 246.780304,280.327118 245.999390,280.999146 
	C245.999390,280.999146 246.009354,281.017609 245.321060,281.056244 
	C243.860825,282.025696 242.400589,282.995148 241.001724,283.983368 
	C241.001724,283.983368 240.971115,283.926941 240.273285,283.931915 
	C239.166565,284.611420 238.059860,285.290955 236.992172,286.005219 
	C236.992172,286.005219 236.991348,285.952972 236.504044,286.135651 
	C236.326111,286.423492 236.148193,286.711334 236.012039,286.996277 
z"/>
<path fill="#0E5E11" opacity="1.000000" stroke="none" 
	d="
M183.865723,351.023834 
	C184.583359,355.559265 188.060745,357.794586 191.823807,357.705170 
	C196.120987,357.603027 198.838333,354.408234 199.467102,349.392395 
	C201.798569,350.103241 204.169739,352.457397 205.594345,351.980957 
	C208.642624,350.961609 209.320404,352.812775 210.682739,354.346954 
	C213.771103,357.824890 217.070419,360.796478 222.156616,357.903168 
	C222.156616,357.903168 222.562302,357.960541 223.030396,357.978027 
	C223.674393,357.995789 223.850266,357.996094 224.026138,357.996399 
	C224.026138,357.996399 224.513885,358.065002 224.912247,358.449219 
	C236.484192,361.292084 246.246140,358.261261 254.973099,351.205658 
	C264.334412,347.079956 273.672394,342.900269 283.065918,338.849274 
	C288.492859,336.508911 294.009338,334.376099 300.982147,331.541443 
	C300.982147,338.179474 300.956024,343.550690 300.990479,348.921570 
	C301.017883,353.195862 304.070740,357.939636 307.305969,357.655609 
	C311.191437,357.314453 315.973724,357.467682 317.367554,351.233276 
	C317.806763,335.416534 317.828186,320.231842 317.921021,304.580353 
	C318.003632,286.873077 318.071411,269.632141 317.925659,252.393051 
	C317.913086,250.906052 316.487396,249.431015 315.718140,247.950424 
	C313.233582,247.163330 310.749023,246.376221 308.264465,245.589127 
	C307.812927,245.036911 307.361389,244.484695 306.909821,243.932495 
	C309.235596,242.203827 311.640808,240.571045 313.869080,238.724716 
	C317.477081,235.735138 319.793976,226.497589 317.689484,222.490311 
	C317.070923,221.312439 315.073090,220.858917 312.853973,220.018799 
	C277.690033,219.970169 243.379471,219.976196 209.068924,219.982208 
	C207.370880,220.006485 205.672852,220.030777 203.571335,219.551300 
	C203.104538,203.660248 203.041199,188.272995 202.977875,172.885727 
	C202.548706,164.639389 206.120529,157.518356 210.611359,151.279236 
	C221.546722,136.086685 236.541992,128.867966 255.592484,128.781815 
	C269.112152,128.720688 281.078705,131.892151 291.761902,139.931595 
	C304.499725,149.517212 311.815338,162.066559 311.981079,178.318207 
	C312.049713,185.047333 312.951172,186.033417 319.883331,185.973083 
	C325.501953,185.924210 331.275452,184.730972 336.698792,185.670334 
	C344.622253,187.042740 350.192047,192.263733 353.126770,199.937637 
	C353.530731,200.993927 353.699341,202.140213 353.938904,204.096924 
	C353.923706,254.274521 353.946472,303.600037 353.969238,352.925537 
	C353.808258,362.906891 347.690277,369.615631 335.165833,372.519745 
	C332.728424,372.102020 330.904510,371.979279 329.080597,371.979095 
	C278.717316,371.974182 228.354050,371.981689 177.990768,371.987152 
	C169.302750,371.882660 161.061798,364.010254 160.075241,353.983582 
	C160.082535,304.068665 160.062164,255.016617 160.041809,205.964584 
	C160.344223,203.922882 160.646652,201.881180 161.223511,199.319489 
	C161.745178,198.563980 161.915802,198.282104 162.009842,197.953873 
	C162.009842,197.953873 162.003693,198.014557 162.320526,197.927795 
	C163.745728,195.884888 164.854126,193.928741 165.962524,191.972580 
	C165.962509,191.972580 165.996811,191.993515 166.293381,191.939651 
	C167.114655,191.269562 167.639359,190.653320 168.164062,190.037079 
	C168.555038,189.767731 168.945999,189.498383 169.958832,189.120544 
	C171.239883,188.946625 171.920532,188.965195 172.554962,188.802979 
	C179.823944,186.944489 179.996933,187.072693 180.001373,194.923019 
	C180.009155,208.672531 179.970871,222.422211 180.041702,236.171356 
	C180.051620,238.100143 180.569321,240.026306 180.851974,241.953690 
	C180.903107,242.379715 180.954239,242.805725 180.926727,243.836655 
	C182.912277,244.980453 184.974472,245.978607 187.040924,245.987457 
	C208.581085,246.079773 230.122009,246.033020 251.662445,245.953812 
	C253.423813,245.947327 255.183289,245.419128 256.943634,245.133331 
	C260.262360,245.133331 263.581085,245.133331 266.899780,245.133331 
	C267.125488,245.566971 267.351196,246.000626 267.576904,246.434265 
	C240.902420,262.205566 214.033203,277.650726 186.391479,293.000488 
	C185.130402,293.384857 184.556076,293.721008 183.981750,294.057159 
	C183.981750,294.057159 183.975418,293.982422 183.734268,294.292053 
	C183.332382,295.409302 183.033966,296.216492 183.031204,297.024628 
	C182.973450,313.941681 182.931641,330.858887 182.959122,347.775940 
	C182.960876,348.859070 183.549896,349.941223 183.865723,351.023834 
M292.976410,189.000687 
	C292.976410,189.000687 292.884766,189.026657 293.775726,188.867828 
	C293.838379,180.937210 293.901001,173.006607 293.693359,164.404633 
	C291.040894,155.824097 285.044434,149.600296 277.329620,146.233658 
	C260.480560,138.881042 243.660034,139.661804 228.726654,151.211166 
	C224.956543,154.126923 221.487183,159.431534 220.893753,164.027603 
	C219.750092,172.884933 220.756775,182.019897 220.518967,191.591263 
	C222.066864,192.066635 223.612854,192.948563 225.162933,192.955795 
	C245.414352,193.050323 265.666412,193.044586 285.918091,192.981430 
	C287.670074,192.975983 289.420197,192.385696 291.520081,192.025452 
	C291.520081,192.025452 291.867004,192.081024 292.639893,192.154114 
	C293.036133,191.811813 293.432404,191.469513 293.828674,191.127228 
	C293.541382,190.906097 293.254120,190.684967 293.029236,190.511429 
	C293.029236,190.511429 292.983307,190.575073 293.619873,189.728775 
	C293.396240,189.455673 293.172577,189.182571 292.976410,189.000687 
z"/>
<path fill="#156018" opacity="1.000000" stroke="none" 
	d="
M244.161758,347.639221 
	C243.691360,347.737122 243.220963,347.835052 241.951035,347.973022 
	C229.641739,351.156128 219.215622,347.507996 208.946762,342.874298 
	C208.946762,342.874298 209.030670,342.438629 209.417007,342.146118 
	C213.219437,339.587708 216.635513,337.321838 220.051605,335.055969 
	C220.051605,335.055969 220.451950,334.995514 221.104340,334.992432 
	C230.074265,335.550507 236.680832,330.720215 243.783035,327.668701 
	C245.662857,326.861053 246.569962,323.789520 247.923721,321.757477 
	C257.765259,313.907135 267.606781,306.056793 278.114075,298.171295 
	C279.357391,299.433472 279.634949,301.045105 280.585144,301.952087 
	C281.903137,303.210144 283.809265,304.771027 285.305969,304.621796 
	C286.431366,304.509613 288.001343,301.957306 288.103546,300.407501 
	C288.207397,298.833649 286.681183,297.186493 286.008270,295.515289 
	C285.549133,294.375031 285.329437,293.138306 285.002655,291.944733 
	C285.002655,291.944733 285.010986,292.005493 285.281006,291.929077 
	C286.059387,291.255188 286.567810,290.657715 287.076233,290.060242 
	C288.293915,287.904785 289.511627,285.749329 290.853149,282.951233 
	C290.505554,276.523193 285.612122,273.095978 281.737488,271.704102 
	C273.215363,268.642853 264.958313,274.898071 262.875793,283.987976 
	C262.472382,285.748779 261.439880,287.705780 260.086639,288.849060 
	C254.574753,293.505768 248.866623,297.935028 243.142670,302.333344 
	C240.941467,304.024750 238.676056,306.188141 236.134338,306.747223 
	C232.557907,307.533813 228.696960,307.026917 224.957687,307.073151 
	C224.957687,307.073151 225.000229,307.026031 224.845947,306.673584 
	C219.668945,303.788147 214.308426,304.451599 211.992706,307.892853 
	C211.992706,307.892853 211.572220,308.006439 211.119598,307.838135 
	C207.318024,308.948242 203.969055,310.226624 200.697449,311.475494 
	C200.740097,310.503540 200.824966,308.568939 200.909821,306.634369 
	C200.972366,306.396942 201.103134,306.206299 201.790604,305.979309 
	C202.845535,305.621246 203.412018,305.346375 203.978485,305.071472 
	C203.978485,305.071472 204.454651,305.035889 205.074219,305.012817 
	C207.125656,303.980865 208.557510,302.971985 209.989365,301.963074 
	C209.989365,301.963074 210.008316,301.997223 210.372589,301.980286 
	C213.896515,300.969788 217.826355,301.243469 218.981750,296.952271 
	C218.981750,296.952271 219.000519,297.000854 219.371582,296.973206 
	C222.684158,296.000916 225.851028,295.454132 228.483292,293.963409 
	C230.080902,293.058594 230.852051,290.694458 231.994446,288.985901 
	C231.994446,288.985901 232.001221,289.001221 232.360168,288.992310 
	C233.808960,288.309418 234.898834,287.635437 235.988708,286.961456 
	C235.988708,286.961456 236.012039,286.996277 236.200592,286.864685 
	C236.649170,286.518799 236.849899,286.258789 236.991348,285.952972 
	C236.991348,285.952972 236.992172,286.005219 237.342957,285.992554 
	C238.786209,285.295593 239.878662,284.611267 240.971115,283.926941 
	C240.971115,283.926941 241.001724,283.983368 241.350769,283.982086 
	C243.136322,282.993073 244.572830,282.005341 246.009354,281.017609 
	C246.009354,281.017609 245.999390,280.999146 246.347809,280.977905 
	C247.446442,280.279938 248.196655,279.603210 248.946884,278.926453 
	C248.946884,278.926453 248.989029,278.959015 249.366730,278.966064 
	C253.629929,278.183990 257.896790,277.991913 259.097900,272.999542 
	C259.097900,272.999542 259.455261,272.986267 260.035767,272.986389 
	C265.055145,271.402008 269.584137,270.018433 273.870819,268.094879 
	C274.972046,267.600708 275.309479,265.404419 275.997803,263.990082 
	C275.997803,263.990082 276.002350,264.000854 276.188660,263.890747 
	C276.620544,263.610840 276.824646,263.400696 276.987213,263.150269 
	C284.579773,258.419006 292.172302,253.687744 300.890747,248.254883 
	C300.890747,271.417603 300.890747,293.201050 300.890747,314.775238 
	C298.881195,314.229889 297.537872,313.865326 295.682922,313.769897 
	C291.109772,315.355011 292.297211,318.502991 292.418579,321.438782 
	C292.494415,323.273254 291.918457,325.134705 291.609314,327.151672 
	C288.645203,323.584961 286.426239,320.914886 284.230865,318.273193 
	C280.163513,321.143188 279.690674,324.888123 282.250885,328.964508 
	C282.766968,329.786224 282.565704,331.058411 282.695160,332.122925 
	C282.030945,332.399109 281.366730,332.675262 280.065796,332.977356 
	C278.286987,333.728027 277.144897,334.452759 276.002838,335.177460 
	C275.525360,335.414673 275.047852,335.651886 274.152161,335.582153 
	C273.956970,334.140381 274.275818,333.014008 274.377014,331.868378 
	C274.487213,330.621216 274.775482,328.440247 274.327179,328.254211 
	C272.146179,327.349091 269.584473,326.245697 267.484741,326.705811 
	C266.343140,326.955963 265.531677,330.124023 265.169556,332.086426 
	C264.863770,333.743439 265.420441,335.559601 265.619812,337.549011 
	C262.693939,337.959747 260.416504,339.053314 258.726746,335.416656 
	C257.945984,333.736389 255.012939,332.184418 253.078156,332.210907 
	C251.732162,332.229340 249.746002,334.874207 249.325089,336.649109 
	C249.016754,337.949188 250.786224,339.742004 252.108749,342.209015 
	C251.947052,342.309387 250.537903,343.120667 249.196777,344.032043 
	C247.489655,345.192078 245.837570,346.433105 244.161758,347.639221 
M268.995575,311.435089 
	C268.995575,312.298462 268.995575,313.161835 268.995575,314.025177 
	C269.400848,313.942932 269.806122,313.860657 270.211395,313.778381 
	C269.864380,312.840820 269.517365,311.903259 268.995575,311.435089 
z"/>
<path fill="#1E5F21" opacity="1.000000" stroke="none" 
	d="
M208.682800,343.114929 
	C219.215622,347.507996 229.641739,351.156128 241.592850,348.017639 
	C234.749222,352.964325 223.111115,353.219055 216.032074,348.738922 
	C214.132385,347.536652 211.900726,346.858978 208.868301,345.519409 
	C210.145676,354.117554 216.731537,354.809143 221.925949,357.622803 
	C217.070419,360.796478 213.771103,357.824890 210.682739,354.346954 
	C209.320404,352.812775 208.642624,350.961609 205.594345,351.980957 
	C204.169739,352.457397 201.798569,350.103241 199.520996,349.003082 
	C199.289749,342.158203 197.540543,335.134491 202.766830,329.066132 
	C204.853943,326.642731 206.322495,323.404694 207.218643,320.291656 
	C209.665512,311.791656 215.315109,309.679413 224.713181,314.858826 
	C222.230057,316.597839 219.628860,317.688751 216.748505,318.979797 
	C215.353577,320.300018 214.047028,321.299164 213.220383,322.602661 
	C212.910645,323.091034 213.717438,324.287506 214.012024,325.553589 
	C213.691956,327.736298 213.374985,329.526550 213.058014,331.316803 
	C207.391434,332.776794 204.135040,336.739532 202.938522,342.137634 
	C202.600296,343.663452 204.381500,345.659027 205.190674,347.439209 
	C206.266739,346.078003 207.342789,344.716797 208.682800,343.114929 
z"/>
<path fill="#2B642F" opacity="1.000000" stroke="none" 
	d="
M213.442566,331.233093 
	C213.374985,329.526550 213.691956,327.736298 214.394226,325.472504 
	C218.120712,323.847290 221.461884,322.695618 224.803055,321.543945 
	C224.730728,320.924713 224.658401,320.305450 224.586075,319.686218 
	C222.066605,319.384033 219.547134,319.081848 217.027664,318.779663 
	C219.628860,317.688751 222.230057,316.597839 224.949036,315.128601 
	C231.263718,317.575226 236.921646,316.470428 242.127640,312.349915 
	C251.687576,304.783234 261.227142,297.190826 271.226929,289.441010 
	C274.058014,288.493896 276.437439,287.714935 278.816864,286.935974 
	C275.447754,290.588989 272.387939,294.601074 268.647278,297.822693 
	C259.975861,305.290863 250.999619,312.407104 242.079956,319.582703 
	C240.853989,320.568939 239.246216,321.080566 237.443069,321.416931 
	C236.227661,320.049133 235.184799,318.140137 234.576569,318.269806 
	C232.275620,318.760376 230.115662,319.912262 227.902954,320.816711 
	C228.063919,321.308716 228.224884,321.800720 228.385849,322.292755 
	C230.652420,322.573303 232.919006,322.853882 235.185577,323.134430 
	C228.066086,325.806061 220.946594,328.477722 213.442566,331.233093 
z"/>
<path fill="#2C652E" opacity="1.000000" stroke="none" 
	d="
M244.504333,347.707153 
	C245.837570,346.433105 247.489655,345.192078 249.196777,344.032043 
	C250.537903,343.120667 251.947052,342.309387 252.108749,342.209015 
	C250.786224,339.742004 249.016754,337.949188 249.325089,336.649109 
	C249.746002,334.874207 251.732162,332.229340 253.078156,332.210907 
	C255.012939,332.184418 257.945984,333.736389 258.726746,335.416656 
	C260.416504,339.053314 262.693939,337.959747 265.619812,337.549011 
	C265.420441,335.559601 264.863770,333.743439 265.169556,332.086426 
	C265.531677,330.124023 266.343140,326.955963 267.484741,326.705811 
	C269.584473,326.245697 272.146179,327.349091 274.327179,328.254211 
	C274.775482,328.440247 274.487213,330.621216 274.377014,331.868378 
	C274.275818,333.014008 273.956970,334.140381 273.874756,335.576721 
	C266.862976,338.993774 259.734619,342.166626 252.544739,345.193481 
	C250.057373,346.240662 247.417252,346.925018 244.504333,347.707153 
z"/>
<path fill="#215E25" opacity="1.000000" stroke="none" 
	d="
M225.055481,307.412872 
	C228.696960,307.026917 232.557907,307.533813 236.134338,306.747223 
	C238.676056,306.188141 240.941467,304.024750 243.142670,302.333344 
	C248.866623,297.935028 254.574753,293.505768 260.086639,288.849060 
	C261.439880,287.705780 262.472382,285.748779 262.875793,283.987976 
	C264.958313,274.898071 273.215363,268.642853 281.737488,271.704102 
	C285.612122,273.095978 290.505554,276.523193 290.973969,282.695618 
	C289.006195,281.307861 287.004761,279.571808 285.083344,277.751251 
	C278.441162,271.457916 267.862823,273.793091 265.989105,282.756744 
	C264.688721,288.977478 260.154846,291.491852 256.358856,294.979797 
	C252.028107,298.959137 247.025391,302.201599 242.634338,306.122314 
	C237.469757,310.733704 231.109848,311.528076 225.055481,307.412872 
z"/>
<path fill="#99C39D" opacity="1.000000" stroke="none" 
	d="
M178.167450,372.391785 
	C228.354050,371.981689 278.717316,371.974182 329.080597,371.979095 
	C330.904510,371.979279 332.728424,372.102020 334.789734,372.528412 
	C282.799438,372.858246 230.571793,372.827301 178.167450,372.391785 
z"/>
<path fill="#B2D7B9" opacity="1.000000" stroke="none" 
	d="
M354.382996,352.776581 
	C353.946472,303.600037 353.923706,254.274521 353.908203,204.484009 
	C354.280243,204.954666 354.963257,205.890015 354.964203,206.826019 
	C355.011444,254.933807 355.001282,303.041626 354.987885,351.149475 
	C354.987762,351.642212 354.863220,352.134918 354.382996,352.776581 
z"/>
<path fill="#649A69" opacity="1.000000" stroke="none" 
	d="
M159.665192,205.979950 
	C160.062164,255.016617 160.082535,304.068665 160.086395,353.593445 
	C159.702179,352.243439 159.015335,350.420990 159.013443,348.597839 
	C158.966385,303.348297 158.987686,258.098694 159.016327,212.849075 
	C159.017761,210.564438 159.193817,208.279892 159.665192,205.979950 
z"/>
<path fill="#2C652E" opacity="1.000000" stroke="none" 
	d="
M282.937378,332.359955 
	C282.565704,331.058411 282.766968,329.786224 282.250885,328.964508 
	C279.690674,324.888123 280.163513,321.143188 284.230865,318.273193 
	C286.426239,320.914886 288.645203,323.584961 291.609314,327.151672 
	C291.918457,325.134705 292.494415,323.273254 292.418579,321.438782 
	C292.297211,318.502991 291.109772,315.355011 295.532166,314.016968 
	C295.570953,316.395325 294.394745,319.084717 295.090424,321.140778 
	C297.014008,326.826233 293.726624,328.695129 289.521118,330.285614 
	C287.416870,331.081451 285.294006,331.828094 282.937378,332.359955 
z"/>
<path fill="#DFFFE3" opacity="1.000000" stroke="none" 
	d="
M209.212311,220.399048 
	C243.379471,219.976196 277.690033,219.970169 312.463257,219.968262 
	C312.303467,220.313889 311.680878,220.954391 311.058502,220.954163 
	C277.157562,220.942123 243.256638,220.876266 209.212311,220.399048 
z"/>
<path fill="#446945" opacity="1.000000" stroke="none" 
	d="
M284.696655,292.136536 
	C285.329437,293.138306 285.549133,294.375031 286.008270,295.515289 
	C286.681183,297.186493 288.207397,298.833649 288.103546,300.407501 
	C288.001343,301.957306 286.431366,304.509613 285.305969,304.621796 
	C283.809265,304.771027 281.903137,303.210144 280.585144,301.952087 
	C279.634949,301.045105 279.357391,299.433472 278.436401,298.030792 
	C280.192200,296.059753 282.291412,294.194061 284.696655,292.136536 
z"/>
<path fill="#215E25" opacity="1.000000" stroke="none" 
	d="
M200.530365,306.826233 
	C200.824966,308.568939 200.740097,310.503540 200.697449,311.475494 
	C203.969055,310.226624 207.318024,308.948242 210.910858,307.900269 
	C204.722641,311.650818 202.955032,318.412659 200.501312,324.697693 
	C199.852478,324.545959 199.203644,324.394257 198.554810,324.242554 
	C199.086853,318.501068 199.618881,312.759583 200.530365,306.826233 
z"/>
<path fill="#2B642F" opacity="1.000000" stroke="none" 
	d="
M256.480835,245.093048 
	C255.183289,245.419128 253.423813,245.947327 251.662445,245.953812 
	C230.122009,246.033020 208.581085,246.079773 187.040924,245.987457 
	C184.974472,245.978607 182.912277,244.980453 180.958023,244.157043 
	C183.496811,244.235977 185.924194,244.903610 188.354767,244.915466 
	C210.908890,245.025604 233.463531,245.022766 256.480835,245.093048 
z"/>
<path fill="#2B642F" opacity="1.000000" stroke="none" 
	d="
M180.892670,241.489807 
	C180.569321,240.026306 180.051620,238.100143 180.041702,236.171356 
	C179.970871,222.422211 180.009155,208.672531 180.001373,194.923019 
	C179.996933,187.072693 179.823944,186.944489 172.554962,188.802979 
	C171.920532,188.965195 171.239883,188.946625 170.164734,189.000732 
	C173.146881,187.735291 176.544998,186.481171 179.943115,185.227051 
	C180.286209,188.252289 180.908386,191.275986 180.925507,194.303070 
	C181.013611,209.876877 180.946365,225.451553 180.892670,241.489807 
z"/>
<path fill="#1E5F21" opacity="1.000000" stroke="none" 
	d="
M254.596359,351.134155 
	C246.246140,358.261261 236.484192,361.292084 225.154465,358.493713 
	C235.203278,357.704376 244.703491,354.350677 254.596359,351.134155 
z"/>
<path fill="#0E5E11" opacity="1.000000" stroke="none" 
	d="
M279.173706,286.909058 
	C276.437439,287.714935 274.058014,288.493896 271.396118,289.145142 
	C271.094849,287.960907 271.076080,286.904388 271.277771,285.305054 
	C271.729523,284.524231 271.903351,284.249847 272.019684,283.939026 
	C272.062805,283.751587 272.105896,283.564148 272.342377,283.002197 
	C272.677368,282.481750 272.810150,282.328156 272.934082,282.166901 
	C274.584686,281.573090 276.350281,280.306671 277.855377,280.563934 
	C279.552277,280.854034 281.014679,282.515869 282.579071,283.581055 
	C281.562927,284.681458 280.546753,285.781830 279.173706,286.909058 
z"/>
<path fill="#1E5F21" opacity="1.000000" stroke="none" 
	d="
M247.577301,321.835968 
	C246.569962,323.789520 245.662857,326.861053 243.783035,327.668701 
	C236.680832,330.720215 230.074265,335.550507 221.306030,334.974976 
	C225.701172,333.046326 230.686340,331.416626 235.351257,329.132782 
	C239.495712,327.103668 243.284897,324.348907 247.577301,321.835968 
z"/>
<path fill="#A7CFA9" opacity="1.000000" stroke="none" 
	d="
M315.915588,248.340759 
	C316.487396,249.431015 317.913086,250.906052 317.925659,252.393051 
	C318.071411,269.632141 318.003632,286.873077 317.749695,304.575562 
	C317.506897,305.037628 317.164093,305.032959 317.164093,305.032959 
	C317.108734,288.331604 317.083282,271.630035 316.959869,254.929184 
	C316.944550,252.861176 316.408051,250.797028 315.915588,248.340759 
z"/>
<path fill="#567D53" opacity="1.000000" stroke="none" 
	d="
M183.919510,350.551849 
	C183.549896,349.941223 182.960876,348.859070 182.959122,347.775940 
	C182.931641,330.858887 182.973450,313.941681 183.031204,297.024628 
	C183.033966,296.216492 183.332382,295.409302 183.771515,294.287750 
	C184.024384,312.675842 183.998840,331.377838 183.919510,350.551849 
z"/>
<path fill="#446945" opacity="1.000000" stroke="none" 
	d="
M202.645996,173.165009 
	C203.041199,188.272995 203.104538,203.660248 203.239716,219.501450 
	C202.864929,219.635162 202.026810,219.313675 202.027863,218.994934 
	C202.077591,203.811234 202.199966,188.627762 202.645996,173.165009 
z"/>
<path fill="#CBF1CB" opacity="1.000000" stroke="none" 
	d="
M317.091614,305.494568 
	C317.164093,305.032959 317.506897,305.037628 317.678253,305.042419 
	C317.828186,320.231842 317.806763,335.416534 317.439697,350.874634 
	C317.069092,336.084137 317.044128,321.020142 317.091614,305.494568 
z"/>
<path fill="#215E25" opacity="1.000000" stroke="none" 
	d="
M275.622864,263.987061 
	C275.309479,265.404419 274.972046,267.600708 273.870819,268.094879 
	C269.584137,270.018433 265.055145,271.402008 260.213928,272.970734 
	C264.956970,269.964661 270.102417,266.974335 275.622864,263.987061 
z"/>
<path fill="#215E25" opacity="1.000000" stroke="none" 
	d="
M231.635254,289.015015 
	C230.852051,290.694458 230.080902,293.058594 228.483292,293.963409 
	C225.851028,295.454132 222.684158,296.000916 219.347931,296.962341 
	C223.060822,294.334106 227.168427,291.689148 231.635254,289.015015 
z"/>
<path fill="#0E5E11" opacity="1.000000" stroke="none" 
	d="
M235.425415,322.964508 
	C232.919006,322.853882 230.652420,322.573303 228.385849,322.292755 
	C228.224884,321.800720 228.063919,321.308716 227.902954,320.816711 
	C230.115662,319.912262 232.275620,318.760376 234.576569,318.269806 
	C235.184799,318.140137 236.227661,320.049133 237.092484,321.394287 
	C236.631104,322.109283 236.148163,322.451935 235.425415,322.964508 
z"/>
<path fill="#1E5F21" opacity="1.000000" stroke="none" 
	d="
M219.672394,335.054596 
	C216.635513,337.321838 213.219437,339.587708 209.472656,341.931335 
	C210.066711,336.101929 215.608521,336.932709 219.672394,335.054596 
z"/>
<path fill="#215E25" opacity="1.000000" stroke="none" 
	d="
M212.343185,307.798950 
	C214.308426,304.451599 219.668945,303.788147 224.818878,306.688599 
	C220.861938,307.272400 216.777802,307.488708 212.343185,307.798950 
z"/>
<path fill="#215E25" opacity="1.000000" stroke="none" 
	d="
M258.733307,272.981689 
	C257.896790,277.991913 253.629929,278.183990 249.347595,278.956451 
	C252.090088,276.947784 255.229401,274.955811 258.733307,272.981689 
z"/>
<path fill="#215E25" opacity="1.000000" stroke="none" 
	d="
M218.626770,297.012177 
	C217.826355,301.243469 213.896515,300.969788 210.353577,301.976135 
	C212.737442,300.349976 215.504608,298.711029 218.626770,297.012177 
z"/>
<path fill="#2B642F" opacity="1.000000" stroke="none" 
	d="
M165.639435,192.086136 
	C164.854126,193.928741 163.745728,195.884888 162.291321,197.918991 
	C163.068954,196.064529 164.192642,194.132111 165.639435,192.086136 
z"/>
<path fill="#215E25" opacity="1.000000" stroke="none" 
	d="
M209.636810,301.971375 
	C208.557510,302.971985 207.125656,303.980865 205.311295,304.984650 
	C206.380615,303.979614 207.832443,302.979645 209.636810,301.971375 
z"/>
<path fill="#215E25" opacity="1.000000" stroke="none" 
	d="
M245.665207,281.036926 
	C244.572830,282.005341 243.136322,282.993073 241.320084,283.972687 
	C242.400589,282.995148 243.860825,282.025696 245.665207,281.036926 
z"/>
<path fill="#215E25" opacity="1.000000" stroke="none" 
	d="
M240.622192,283.929443 
	C239.878662,284.611267 238.786209,285.295593 237.323456,285.975220 
	C238.059860,285.290955 239.166565,284.611420 240.622192,283.929443 
z"/>
<path fill="#215E25" opacity="1.000000" stroke="none" 
	d="
M235.653458,286.992157 
	C234.898834,287.635437 233.808960,288.309418 232.352417,288.989044 
	C233.096542,288.337402 234.207367,287.680115 235.653458,286.992157 
z"/>
<path fill="#2C652E" opacity="1.000000" stroke="none" 
	d="
M276.363831,335.152344 
	C277.144897,334.452759 278.286987,333.728027 279.797791,333.020660 
	C279.019287,333.734436 277.872070,334.430817 276.363831,335.152344 
z"/>
<path fill="#215E25" opacity="1.000000" stroke="none" 
	d="
M248.627014,278.943390 
	C248.196655,279.603210 247.446442,280.279938 246.356552,280.983582 
	C246.780304,280.327118 247.543732,279.643738 248.627014,278.943390 
z"/>
<path fill="#446945" opacity="1.000000" stroke="none" 
	d="
M286.737305,290.039703 
	C286.567810,290.657715 286.059387,291.255188 285.250366,291.927124 
	C285.432617,291.340759 285.915497,290.679962 286.737305,290.039703 
z"/>
<path fill="#2B642F" opacity="1.000000" stroke="none" 
	d="
M167.799408,189.993423 
	C167.639359,190.653320 167.114655,191.269562 166.275146,191.925903 
	C166.451813,191.293945 166.943283,190.621857 167.799408,189.993423 
z"/>
<path fill="#215E25" opacity="1.000000" stroke="none" 
	d="
M203.649185,305.034302 
	C203.412018,305.346375 202.845535,305.621246 201.950073,305.904572 
	C202.187332,305.607727 202.753601,305.302429 203.649185,305.034302 
z"/>
<path fill="#567D53" opacity="1.000000" stroke="none" 
	d="
M184.329010,294.153442 
	C184.556076,293.721008 185.130402,293.384857 186.053116,293.007385 
	C185.826416,293.393921 185.251328,293.821838 184.329010,294.153442 
z"/>
<path fill="#2B642F" opacity="1.000000" stroke="none" 
	d="
M272.784271,282.228882 
	C272.810150,282.328156 272.677368,282.481750 272.420349,282.724487 
	C272.321869,282.586639 272.431702,282.409851 272.784271,282.228882 
z"/>
<path fill="#2B642F" opacity="1.000000" stroke="none" 
	d="
M271.777466,284.040283 
	C271.903351,284.249847 271.729523,284.524231 271.301758,284.908752 
	C271.248596,284.750702 271.391907,284.446106 271.777466,284.040283 
z"/>
<path fill="#215E25" opacity="1.000000" stroke="none" 
	d="
M236.747696,286.044312 
	C236.849899,286.258789 236.649170,286.518799 236.179688,286.866119 
	C236.148193,286.711334 236.326111,286.423492 236.747696,286.044312 
z"/>
<path fill="#215E25" opacity="1.000000" stroke="none" 
	d="
M276.755432,263.197113 
	C276.824646,263.400696 276.620544,263.610840 276.183167,263.890869 
	C276.060852,263.672791 276.238281,263.420410 276.755432,263.197113 
z"/>
<path fill="#1E5F21" opacity="1.000000" stroke="none" 
	d="
M223.921539,357.845032 
	C223.850266,357.996094 223.674393,357.995789 223.234512,357.995605 
	C223.252670,357.895020 223.534805,357.794342 223.921539,357.845032 
z"/>
<path fill="#2B642F" opacity="1.000000" stroke="none" 
	d="
M161.745056,198.030609 
	C161.915802,198.282104 161.745178,198.563980 161.290405,198.938110 
	C161.215332,198.753586 161.347794,198.430466 161.745056,198.030609 
z"/>
<path fill="#000000" opacity="1.000000" stroke="none" 
	d="
M292.983307,190.575073 
	C292.983307,190.575073 293.029236,190.511429 292.752808,190.720825 
	C292.273254,191.313828 292.070129,191.697418 291.867004,192.081024 
	C291.867004,192.081024 291.520081,192.025452 290.856812,192.025574 
	C268.976379,192.017654 247.759094,192.033920 226.542160,191.959915 
	C224.650986,191.953308 222.761871,191.360367 220.871796,191.039749 
	C220.756775,182.019897 219.750092,172.884933 220.893753,164.027603 
	C221.487183,159.431534 224.956543,154.126923 228.726654,151.211166 
	C243.660034,139.661804 260.480560,138.881042 277.329620,146.233658 
	C285.044434,149.600296 291.040894,155.824097 293.438232,164.926117 
	C293.083649,173.307281 292.984222,181.166962 292.884766,189.026657 
	C292.884766,189.026657 292.976410,189.000687 292.655579,189.037552 
	C292.550964,189.574631 292.767120,190.074860 292.983307,190.575073 
z"/>
<path fill="#446945" opacity="1.000000" stroke="none" 
	d="
M220.695374,191.315506 
	C222.761871,191.360367 224.650986,191.953308 226.542160,191.959915 
	C247.759094,192.033920 268.976379,192.017654 290.682373,192.046387 
	C289.420197,192.385696 287.670074,192.975983 285.918091,192.981430 
	C265.666412,193.044586 245.414352,193.050323 225.162933,192.955795 
	C223.612854,192.948563 222.066864,192.066635 220.695374,191.315506 
z"/>
<path fill="#B2D7B9" opacity="1.000000" stroke="none" 
	d="
M293.330261,188.947235 
	C292.984222,181.166962 293.083649,173.307281 293.573364,165.261780 
	C293.901001,173.006607 293.838379,180.937210 293.330261,188.947235 
z"/>
<path fill="#B2D7B9" opacity="1.000000" stroke="none" 
	d="
M292.253418,192.117554 
	C292.070129,191.697418 292.273254,191.313828 292.721619,190.697037 
	C293.254120,190.684967 293.541382,190.906097 293.828674,191.127228 
	C293.432404,191.469513 293.036133,191.811813 292.253418,192.117554 
z"/>
<path fill="#B2D7B9" opacity="1.000000" stroke="none" 
	d="
M293.301575,190.151917 
	C292.767120,190.074860 292.550964,189.574631 292.641846,188.991943 
	C293.172577,189.182571 293.396240,189.455673 293.301575,190.151917 
z"/>
<path fill="#CBF1CB" opacity="1.000000" stroke="none" 
	d="
M269.082947,311.200378 
	C269.517365,311.903259 269.864380,312.840820 270.211395,313.778381 
	C269.806122,313.860657 269.400848,313.942932 268.995575,314.025177 
	C268.995575,313.161835 268.995575,312.298462 269.082947,311.200378 
z"/>
<path fill="#000000" opacity="1.000000" stroke="none" 
	d="
M216.748505,318.979797 
	C219.547134,319.081848 222.066605,319.384033 224.586075,319.686218 
	C224.658401,320.305450 224.730728,320.924713 224.803055,321.543945 
	C221.461884,322.695618 218.120712,323.847290 214.397339,325.080048 
	C213.717438,324.287506 212.910645,323.091034 213.220383,322.602661 
	C214.047028,321.299164 215.353577,320.300018 216.748505,318.979797 
z"/>
</svg>