<svg version="1.1" id="Layer_1" xmlns="http://www.w3.org/2000/svg" xmlns:xlink="http://www.w3.org/1999/xlink" x="0px" y="0px"
	 width="100%" viewBox="0 0 496 496" enable-background="new 0 0 496 496" xml:space="preserve">
<path fill="#000000" opacity="1.000000" stroke="none" 
	d="
M243.519684,348.697662 
	C238.301758,350.723358 233.241516,351.857819 228.079041,352.082336 
	C223.670258,352.274078 219.483688,351.015991 215.992462,348.124908 
	C213.958328,346.440399 212.022476,345.758575 209.607864,348.250305 
	C213.036682,353.439301 217.894470,356.190704 223.950439,356.849548 
	C231.378159,357.657715 238.557007,356.461456 245.463882,353.622589 
	C262.251099,346.722656 279.036621,339.818512 295.826813,332.925873 
	C300.694946,330.927429 301.145569,331.219269 301.228760,336.562531 
	C301.293579,340.727722 301.383179,344.898224 301.247528,349.059357 
	C301.093445,353.785400 303.860077,356.317322 307.874878,357.155548 
	C311.942383,358.004761 314.777039,355.552521 316.559448,351.973267 
	C317.551910,349.980347 317.621368,347.822327 317.605347,345.634735 
	C317.379364,314.821350 317.135742,284.007965 317.023682,253.194122 
	C317.010651,249.610458 315.848969,247.578278 312.241699,246.835999 
	C310.892151,246.558304 309.192993,246.460892 308.313843,244.857361 
	C308.365967,242.718216 310.135010,241.578735 311.517303,240.753860 
	C318.370422,236.664307 317.970947,230.189651 317.674591,223.617538 
	C317.568970,221.275543 316.486572,220.317963 314.249207,220.370163 
	C312.916992,220.401245 311.583191,220.361572 310.250122,220.361511 
	C276.255066,220.359970 242.260010,220.365631 208.264954,220.353409 
	C201.707153,220.351044 201.686646,220.319107 201.676804,213.637756 
	C201.659622,201.972794 202.035446,190.293930 201.592041,178.645798 
	C200.724472,155.856033 219.199570,134.781342 241.792709,129.713226 
	C253.893402,126.998795 265.996460,126.770142 277.627625,131.518463 
	C298.762177,140.146439 311.539948,155.139664 311.857483,178.850922 
	C311.918854,183.432556 313.463501,185.071655 318.024719,184.733429 
	C322.664886,184.389359 327.352173,184.598129 332.016724,184.681015 
	C344.100006,184.895706 353.203369,193.222824 354.454834,205.161850 
	C354.680145,207.311172 354.931702,209.472565 354.932251,211.628433 
	C354.943359,256.621857 354.933624,301.615265 354.883698,346.608643 
	C354.878326,351.438751 354.698059,356.291290 352.304047,360.702606 
	C347.837006,368.933807 340.779449,373.085510 331.544281,373.101501 
	C281.718384,373.187836 231.892120,373.226685 182.066406,373.108246 
	C168.633392,373.076324 158.881683,363.514587 158.832947,350.066742 
	C158.661392,302.741028 158.697891,255.414078 158.837997,208.088135 
	C158.872269,196.510208 165.908173,187.959030 176.284683,185.301285 
	C180.155502,184.309814 181.396545,185.417480 181.373505,189.289688 
	C181.275421,205.786667 181.494125,222.286819 181.251678,238.780746 
	C181.183411,243.425156 182.673141,244.786209 187.242783,244.750885 
	C212.071045,244.558884 236.901474,244.633499 261.731110,244.661102 
	C263.788635,244.663391 265.959625,244.209991 267.903412,245.228806 
	C267.757568,246.966660 266.485565,247.268372 265.534210,247.816818 
	C240.859253,262.041473 216.244186,276.372803 191.431305,290.352966 
	C186.387634,293.194733 183.971436,296.227417 184.165390,302.359070 
	C184.644608,317.508209 184.301147,332.682922 184.315536,347.847382 
	C184.320953,353.554688 187.366379,357.548218 191.500732,357.385345 
	C195.854507,357.213806 198.595520,353.494141 198.646133,347.646088 
	C198.674988,344.313446 198.623886,340.979675 198.689468,337.648010 
	C198.715454,336.328369 198.456421,334.517334 199.186371,333.775543 
	C204.204468,328.676056 205.695816,321.745941 209.041977,315.815643 
	C211.773682,310.974365 218.590790,309.779755 223.750717,313.022369 
	C231.254898,317.738220 237.811310,315.777252 244.039703,311.045837 
	C251.199615,305.606842 258.085083,299.806335 265.083984,294.155701 
	C267.826050,291.941864 270.280579,289.751648 270.170898,285.602325 
	C270.102570,283.016357 271.955811,280.960571 274.590637,280.097992 
	C277.529968,279.135742 280.215576,279.897400 282.557953,281.759949 
	C285.018799,283.716705 283.464081,285.066132 281.764648,286.469452 
	C269.311615,296.752930 256.669830,306.822998 244.527542,317.462494 
	C235.977814,324.954010 225.204285,326.846100 215.168854,330.635468 
	C209.695953,332.702057 204.591507,334.908875 202.997238,341.269501 
	C202.530304,343.132416 201.235107,345.558411 203.801788,346.469452 
	C206.215439,347.326172 207.228195,345.171722 207.707153,343.044006 
	C208.524063,339.414948 210.933609,337.392792 214.368927,336.297974 
	C219.442612,334.681061 224.426788,332.755280 229.553436,331.338684 
	C238.512131,328.863159 245.531235,323.224518 252.506271,317.574646 
	C264.413391,307.929779 276.090485,298.001099 287.983917,288.338959 
	C290.654144,286.169647 290.888763,284.229156 288.941711,281.603577 
	C285.593323,277.088165 281.510681,273.579315 275.569458,274.488403 
	C269.783234,275.373810 266.032990,278.946838 265.078247,284.999115 
	C264.653290,287.692963 262.684845,289.321075 260.769775,290.923309 
	C254.513382,296.157593 248.307404,301.458496 241.907944,306.513367 
	C237.008392,310.383514 231.726395,311.745209 225.712601,308.470154 
	C214.817810,302.536926 204.515625,311.256348 202.424072,319.260590 
	C201.973999,320.983002 202.059616,322.967804 200.114456,323.966339 
	C196.153336,317.569244 198.555145,307.368561 204.712250,303.822449 
	C234.879761,286.447632 265.021942,269.028778 295.186951,251.649597 
	C296.860992,250.685120 298.377960,249.167648 300.919861,249.648117 
	C300.919861,272.980591 300.919861,296.311859 300.919861,320.272461 
	C297.764709,318.381378 299.045593,314.867310 296.752106,312.886108 
	C294.398651,315.838226 294.714294,319.117310 295.451691,322.006683 
	C296.545715,326.293488 294.724731,327.904999 291.063934,329.356873 
	C275.282104,335.616028 259.600311,342.127411 243.519684,348.697662 
M220.350235,185.245880 
	C220.389954,188.350540 219.573914,191.739670 224.723801,191.710800 
	C246.038055,191.591263 267.353577,191.623611 288.668121,191.718216 
	C291.996948,191.732971 293.007019,190.283997 293.036591,187.213898 
	C293.094391,181.223587 293.508087,175.235992 293.532562,169.246277 
	C293.564484,161.427017 290.428192,155.079865 284.143951,150.326126 
	C270.529999,140.027786 245.890182,139.117767 231.708008,148.564056 
	C224.187531,153.573212 219.550232,160.191605 220.287979,169.823502 
	C220.655701,174.624466 220.351059,179.476929 220.350235,185.245880 
M213.758881,324.903198 
	C217.312119,323.901825 221.086945,323.463440 224.411713,321.016327 
	C221.925400,318.322968 219.301254,318.036652 216.583939,319.480988 
	C214.548065,320.563141 212.053589,321.643005 213.758881,324.903198 
M273.212250,309.192444 
	C270.830444,308.798920 269.706665,310.299927 268.626923,312.012573 
	C269.746918,313.862061 271.015991,314.888672 273.097534,314.158447 
	C273.992615,312.690338 273.668488,311.202454 273.212250,309.192444 
M284.061920,298.603882 
	C283.318848,299.403442 282.099243,299.829590 282.000763,301.427582 
	C283.235138,302.194855 284.277466,303.552490 286.480011,302.885376 
	C286.174133,301.191681 288.452606,298.671661 284.061920,298.603882 
M283.769104,321.844299 
	C282.330627,323.216217 282.027710,324.822510 282.813782,326.952820 
	C284.553345,326.609589 286.202850,326.297058 287.275543,324.733154 
	C286.977295,322.957764 285.825317,322.189819 283.769104,321.844299 
M254.553986,334.508392 
	C252.420044,335.481323 252.420044,335.481323 252.877121,338.879883 
	C254.543747,339.083252 256.087189,338.967560 257.132172,337.420471 
	C257.101288,335.956177 255.916824,335.526306 254.553986,334.508392 
M268.439331,328.461121 
	C268.118103,329.826447 267.017670,331.077606 267.839203,332.705750 
	C269.743256,333.033417 271.262146,332.515167 272.478668,330.602417 
	C271.576843,329.279724 270.850250,327.844818 268.439331,328.461121 
M255.821747,322.806396 
	C256.022583,325.080536 257.504150,325.496277 259.537781,325.611053 
	C259.648560,323.596008 260.117218,321.880646 259.036682,319.950043 
	C257.863831,320.899994 256.990570,321.607300 255.821747,322.806396 
z"/>
</svg>